<?xml version="1.0" encoding="UTF-8"?> <svg xmlns="http://www.w3.org/2000/svg" width="3917" height="2320" viewBox="0 0 3917 2320" fill="none"> <path d="M1264.64 635.071C1189.48 657.491 1196.32 744.011 1196.32 744.011C1117.25 623.491 899.998 549.481 875.218 664.181C850.438 778.881 1041.48 892.751 1041.48 892.751C1041.48 892.751 909.988 986.521 957.118 1061.84C1015.26 1154.73 1200.8 1054.61 1395.23 1147.24C1589.66 1239.87 1687.07 1053.67 1594.23 1007.24C1501.39 960.811 1339.8 612.661 1264.64 635.071Z" fill="#1A114D"></path> <path d="M1520.48 1048.72C1477.94 1024.06 1428.36 994.021 1373.07 958.281L1257.82 637.361C1256.02 638.031 1254.32 638.761 1252.62 639.511L1365.29 953.242L1359.84 949.701C1276.84 895.561 1175.37 829.291 1085.28 770.421L1074.84 639.721C1072.88 638.721 1070.93 637.738 1068.97 636.771L1079.34 766.531C996.337 712.291 923.677 664.791 885.117 639.531C884.117 641.091 883.117 642.701 882.267 644.381L975.187 705.141L891.047 748.821C891.934 750.461 892.847 752.098 893.787 753.731L980.607 708.731C1066.13 764.631 1181.3 839.902 1283.68 906.732L951.437 1050.73C952.104 1052.44 952.87 1054.15 953.737 1055.85L1289.31 910.431L1356.8 954.431C1385.6 973.218 1412.87 990.515 1438.61 1006.32L1276.38 1111.07C1279.11 1111.51 1281.86 1111.96 1284.61 1112.45L1443.91 1009.58C1472.39 1027.06 1498.77 1042.7 1522.84 1056.58C1522.95 1056.65 1523.06 1056.72 1523.18 1056.78C1560.47 1078.29 1592.18 1095.55 1617.35 1108.78C1618.28 1107.13 1619.14 1105.47 1619.96 1103.78C1595.06 1090.68 1563.78 1073.65 1526.96 1052.44L1496.85 902.931C1494.18 899.251 1491.51 895.522 1488.85 891.742L1520.48 1048.72Z" fill="#FFD949"></path> <path d="M2563.15 656.92V373.85L2676.82 383.68L2597.63 663.29L2563.15 656.92Z" fill="#FFDD7D"></path> <path d="M2676.82 710.96L2806.27 459.22L2902.87 519.95L2704.57 732.39L2676.82 710.96Z" fill="#FFDD7D"></path> <path d="M2754.59 786.71L2983.35 595.81L3061.62 760.29L2772.41 826.59L2754.59 786.71Z" fill="#FFDD7D"></path> <path d="M2444.42 721.51L2264.72 493.38L2438.27 413.41L2485.39 706.36L2444.42 721.51Z" fill="#FFDD7D"></path> <path style="mix-blend-mode:screen" d="M2350.83 811.7L2072.88 727.51L2169.41 562.59L2375.74 775.82L2350.83 811.7Z" fill="url(#paint0_linear)"></path> <path d="M2772.56 878.65L3055.43 867.99L3050.98 1010.74L2767.82 922.07L2772.56 878.65Z" fill="#FFDD7D"></path> <path d="M2728.63 992.8L2995.66 1086.74L2939.11 1217.89L2708.29 1031.45L2728.63 992.8Z" fill="#FFDD7D"></path> <path d="M2669.1 1077.77L2866.17 1280.98L2757.04 1373.12L2633.65 1103.28L2669.1 1077.77Z" fill="#FFDD7D"></path> <path d="M2391.5 1061.34C2296.7 966.544 2296.7 812.843 2391.5 718.043C2486.3 623.243 2640 623.243 2734.8 718.043C2829.6 812.843 2829.6 966.544 2734.8 1061.34C2640 1156.14 2486.3 1156.14 2391.5 1061.34Z" fill="#FFDD7D"></path> <path d="M2321.79 915.68C2334.79 1037.53 2437.87 1132.44 2563.15 1132.44C2697.22 1132.44 2805.9 1023.76 2805.9 889.69C2805.92 849.55 2795.98 810.033 2776.97 774.682C2757.96 739.331 2730.47 709.251 2696.97 687.14C2688.6 694.63 2675.48 711.36 2676.97 742.03C2679.14 786.69 2666.17 836.39 2637.36 845.75C2608.55 855.11 2590.54 822.75 2569.65 850.08C2548.76 877.41 2545.16 901.22 2517.06 906.98C2488.96 912.74 2411.17 876.73 2384.52 889.69C2369.24 897.12 2342.15 907.86 2321.79 915.68Z" fill="#FFD373"></path> <path d="M2460.15 966.77C2461.76 965.16 2500.48 950.92 2536.5 942.28C2572.52 933.64 2602.77 940.12 2624.38 929.28C2645.99 918.44 2656.8 869.49 2671.92 867.33C2687.04 865.17 2705.78 881.03 2689.21 895.79C2672.64 910.55 2657.52 936.65 2635.21 947.73C2612.9 958.81 2563.21 958.34 2547.33 959.3C2531.45 960.26 2447.18 979.73 2460.15 966.77Z" fill="#FFDD7D"></path> <path d="M2711.57 904.82C2711.57 904.82 2683.48 912.02 2677.72 930.75C2671.96 949.48 2696.44 959.01 2711.57 947.75C2726.7 936.49 2743.95 890.41 2711.57 904.82Z" fill="#FFDD7D"></path> <path d="M2619.34 1012.71C2619.34 1012.71 2591.19 1023.71 2563.85 1031.24C2536.51 1038.77 2482.48 1019.66 2489.68 1038.96C2496.88 1058.26 2529.3 1073.8 2568.2 1064.58C2607.1 1055.36 2640.2 1034.48 2642.39 1022.95C2644.58 1011.42 2619.34 1012.71 2619.34 1012.71Z" fill="#FFDD7D"></path> <path d="M2729.92 856.56C2729.92 856.56 2733.15 828.47 2725.23 830.63C2717.31 832.79 2701.46 867.69 2711.54 867.17C2721.62 866.65 2722.38 868.8 2729.92 856.56Z" fill="#FFDD7D"></path> <path d="M2715.5 733C2715.5 733 2702.9 729 2701.1 740.93C2699.3 752.86 2696.75 776.93 2708.29 772.26C2719.83 767.59 2725.57 740.59 2715.5 733Z" fill="#FFDD7D"></path> <path d="M2595.57 874.57C2595.57 874.57 2571.44 875.57 2572.16 885C2572.88 894.43 2604.93 899.42 2609.61 889.69C2614.29 879.96 2603.64 873.66 2595.57 874.57Z" fill="#FFDD7D"></path> <path d="M2522.45 822.34C2522.45 822.34 2486.8 819.46 2478.88 836.34C2470.96 853.22 2487.88 860.83 2510.88 853.63C2533.88 846.43 2540.36 854.11 2563.8 830.46C2587.24 806.81 2589.03 789.52 2569.95 791.68C2550.87 793.84 2546.95 818.38 2522.45 822.34Z" fill="#FFD373"></path> <path d="M2436.38 793.53C2436.38 793.53 2403.24 797.85 2388.83 798.93C2374.42 800.01 2344.89 811.54 2362.54 821.26C2380.19 830.98 2416.93 819.46 2439.26 817.26C2461.59 815.06 2482.12 806.1 2474.55 798.53C2466.98 790.96 2436.38 793.53 2436.38 793.53Z" fill="#FFD373"></path> <path d="M2572.14 738.43C2572.14 738.43 2591.25 708.17 2597.01 691.6C2602.77 675.03 2621.14 675.84 2621.86 687.14C2622.58 698.44 2619.86 711.77 2610.76 728.34C2601.66 744.91 2587 771.56 2577.24 762.2C2567.48 752.84 2564.26 751.48 2572.14 738.43Z" fill="#FFD373"></path> <path d="M2636.81 779.46C2636.39 780.403 2636.17 781.426 2636.17 782.46C2636.17 783.495 2636.39 784.517 2636.81 785.46C2638.25 788.97 2639.99 797.46 2628.39 805.76C2613.27 816.56 2598.63 826.65 2610.81 832.76C2622.99 838.87 2637.04 833.48 2644.6 826.64C2652.16 819.8 2664.05 797.82 2660.45 786.64C2657.25 776.92 2640.86 771.34 2636.81 779.46Z" fill="#FFD373"></path> <path d="M1969.4 2005.28C1572.44 2005.28 1250.64 1683.48 1250.64 1286.52C1250.64 889.56 1572.44 567.76 1969.4 567.76C2366.36 567.76 2688.16 889.56 2688.16 1286.52C2688.16 1683.48 2366.36 2005.28 1969.4 2005.28Z" fill="#FFD949"></path> <path d="M1666.35 1685.63C1666.35 1685.63 1697.92 1593.89 1767.15 1599.51C1836.38 1605.13 1890.22 1650.66 1949.43 1667.21C2008.64 1683.76 2046.07 1642.57 2066.67 1696.86C2087.27 1751.15 1984.29 1790.47 1920.67 1769.86C1857.05 1749.25 1759.67 1706.81 1727.83 1707.44C1695.99 1708.07 1666.35 1685.63 1666.35 1685.63Z" fill="#1A114D"></path> <path d="M1969.4 2005.27C1572.4 2005.27 1250.64 1683.47 1250.64 1286.52C1250.64 1028.85 1386.26 802.89 1589.97 676.01C1601.25 729.18 1559.16 831.85 1542.45 882.45C1519.98 950.51 1486.29 936.75 1411.4 1108.99C1336.51 1281.23 1437.61 1193.24 1487 1329.4C1536.39 1465.56 1458.33 1445.17 1465.69 1590.62C1473.05 1736.07 1495.69 1694.99 1534.96 1726.82C1574.23 1758.65 1619.21 1738.05 1767.15 1760.52C1915.09 1782.99 1866.34 1857.87 1993.15 1908.42C2119.96 1958.97 2094.73 1893.42 2194.78 1878.42C2262.92 1868.22 2289.47 1902.29 2299.49 1925.07C2197.49 1977.91 2084.27 2005.41 1969.4 2005.27V2005.27Z" fill="#FFD949"></path> <path d="M1436.33 1516.48C1421.53 1476.27 1469.66 1445.41 1469.05 1416.75C1468.95 1412.2 1467.75 1406.32 1470.76 1403.23C1468.12 1378.83 1486.07 1421.13 1486.07 1421.13C1486.07 1421.13 1490.72 1436.29 1492.07 1443.62C1500.55 1459.16 1536.14 1468.48 1536.92 1452.04C1537.04 1447.57 1536.01 1443.14 1533.92 1439.18L1525.77 1429.24C1524.04 1426.05 1522.7 1422.97 1524.21 1420.7L1524.06 1420.42C1526.46 1419.25 1529.22 1420.42 1532.17 1422.95C1538.41 1427.43 1542.8 1425.95 1547.27 1424.65C1557.22 1419.51 1567.27 1435.03 1577.27 1438.31C1599.11 1487.41 1593.92 1456.93 1616.32 1468.01C1618.23 1468.95 1621.38 1470.44 1622.99 1473.79C1639.85 1495.13 1657.9 1526.1 1674.66 1536.88C1677.41 1538.65 1683.14 1539.54 1687.39 1540.88C1690.59 1541 1693.92 1542.98 1697.28 1545.52C1699.99 1545.88 1702.53 1546.83 1704.13 1551.13C1733.77 1565.58 1728.51 1593.4 1746.21 1614.18C1749.82 1618.43 1749.68 1620.37 1746.73 1620.99C1746.85 1622.28 1746.97 1623.57 1747.1 1624.86C1747.49 1628.49 1747.9 1632.12 1748.34 1635.74L1745.6 1635.2C1745.49 1635.38 1745.35 1635.55 1745.2 1635.69C1745.15 1635.69 1745.1 1635.69 1745.05 1635.64C1745.92 1645.42 1744.23 1653.89 1750.29 1665.99C1750.51 1672.14 1756.12 1680.58 1755.82 1686.45C1756.02 1686.8 1756.25 1687.13 1756.49 1687.45C1758.16 1689.69 1759.69 1692.03 1761.08 1694.45C1763.46 1695.1 1765.21 1698.22 1767.15 1700.6L1764.77 1703.6L1761.34 1706.73L1759.9 1706.58C1757.9 1708.27 1755.12 1707.68 1751.2 1703.58L1751.15 1703.49C1751.15 1703.74 1751.15 1704 1751.15 1704.24C1724.71 1705.73 1697.08 1661.24 1678.79 1654.93C1674.86 1653.3 1671.27 1650.95 1668.2 1648.02V1648.02C1656.2 1643.14 1615.83 1625.5 1616.83 1635.53C1617 1637.22 1619.68 1640.53 1618.83 1641.9C1608.83 1640.62 1625.83 1657.14 1617.76 1656.3C1613.92 1654.87 1599.47 1635.74 1595.59 1632.3C1592.36 1629.43 1594.24 1634.75 1594.65 1636.96C1597.37 1640.85 1600.13 1644.72 1603.81 1647.69C1608.42 1654.81 1603.07 1651.48 1601.58 1651.78C1598.77 1652.35 1598.84 1691.39 1573.83 1670.78C1572.98 1670.08 1570.74 1669.64 1569.2 1669.06C1565.64 1684.45 1533.41 1644.68 1526.54 1637.35C1510.12 1619.81 1493.9 1598.63 1479.15 1582.75C1463.87 1566.3 1444.87 1534.41 1436.36 1516.59L1436.33 1516.48Z" fill="#1A114D"></path> <path d="M1544.27 1357.88C1541.76 1357.56 1541.8 1353.14 1539.63 1351.37C1539.16 1352.47 1539.43 1354.26 1537.7 1354.19C1531.36 1356.51 1497.17 1382.19 1496.41 1382.43C1493.86 1383.53 1491.36 1384.76 1488.93 1386.12C1473.16 1385.23 1474.03 1374.64 1464.93 1371.19C1434.3 1359.58 1446.93 1381.85 1419.28 1377.33C1415.81 1376.76 1412.74 1380.49 1407.54 1374.62C1402.26 1371.42 1401.72 1369.25 1405.94 1368.06C1409.75 1361.56 1422.2 1364.98 1423.5 1355.06C1423.13 1352.39 1422.93 1349.84 1426.25 1350.18C1425.98 1348.88 1425.73 1347.58 1425.47 1346.28C1423.86 1343.28 1422.47 1340.28 1424.89 1338.61C1445.47 1337.89 1466.89 1333.96 1487.02 1329.42C1497.74 1330.42 1531.64 1344.01 1534.46 1341.76C1539.76 1337.52 1542.86 1335.85 1556.96 1347.91C1554.57 1353.88 1548.93 1358.48 1544.27 1357.88Z" fill="#1A114D"></path> <path d="M1685.52 1373.57C1683.7 1369.5 1683.81 1364.16 1680.63 1359.86C1674.05 1356.03 1672.49 1337.09 1672.33 1335.66C1672.03 1333.02 1679.33 1313.66 1679.33 1313.66C1679.96 1312.94 1690.03 1287.99 1694.61 1289.96C1694.96 1290.11 1695.76 1292.44 1696.38 1293.7C1710.84 1285.06 1715 1312.24 1717.03 1315.09C1719.19 1318.09 1729.2 1333.23 1730.58 1336.64C1731.53 1338.98 1739.02 1345.03 1739.66 1352.05C1741.66 1354.05 1744.4 1354.65 1747 1355.57L1754.05 1356.94C1755.91 1359.62 1754.73 1361.6 1753.93 1363.65C1748.81 1372.64 1743.84 1381.59 1739.03 1390.5C1722.44 1402.76 1693.11 1390.45 1685.52 1373.57Z" fill="#1A114D"></path> <path d="M1881.24 1343.37C1882.17 1344.63 1882.12 1348.48 1880.48 1350.46C1861.2 1370.6 1812.4 1447.1 1785.07 1432.26C1781.23 1430.18 1783.53 1407.77 1783.47 1406.64C1794.67 1383.89 1870.25 1328.59 1881.24 1343.37Z" fill="#1A114D"></path> <path d="M1593.57 1009.41C1597.47 1002.06 1603.45 989.85 1599.9 980.3C1600.26 976.42 1616.08 957.85 1621.59 961.3C1627.1 964.75 1635.14 993.15 1635.14 993.15C1635.57 993.36 1632.69 1014.7 1645.88 1012.9C1655.02 1011.65 1662.98 1015.38 1664.05 1026.1C1665.8 1028.48 1669.05 1030.99 1662.39 1032.66C1656.55 1035.66 1638.84 1026.47 1632.84 1026.09C1625.24 1031.81 1587.1 1021.49 1593.57 1009.41Z" fill="#1A114D"></path> <path d="M1611.02 925C1619.52 926.36 1628.69 921.49 1636.77 914.05C1645.77 909.4 1647.25 914.87 1642.77 917.75C1636.77 921.58 1646.99 940.64 1639.71 946.56C1642.53 944.27 1610.07 947.99 1610.88 947.78C1612.77 947.32 1594.73 922.41 1611.02 925Z" fill="#1A114D"></path> <path d="M1780.75 1440.12C1779.04 1446.5 1720.26 1449.57 1708.08 1443.88C1706.32 1443.05 1705.73 1439.19 1706.6 1437.01C1725.22 1429.33 1782.24 1434.53 1780.75 1440.12Z" fill="#1A114D"></path> <path d="M1991.51 1329.36C1999.91 1322.08 2003.43 1323.52 2002.78 1333.11C2002.62 1335.51 2002.56 1338.02 2002.46 1340.48L2002.97 1340.33C2007.26 1352.99 1991.23 1365.01 1983.68 1352.13C1982.99 1351.02 1982.64 1349.74 1982.65 1348.43C1982.67 1347.13 1983.07 1345.86 1983.79 1344.77C1986.29 1339.6 1988.43 1334.05 1991.51 1329.36Z" fill="#1A114D"></path> <path d="M1559.57 1348.75L1565.72 1347.37L1567.11 1347.61C1568.85 1347.84 1570.54 1348.36 1572.11 1349.15L1576.29 1349.72C1576.92 1350.06 1577.53 1350.44 1578.11 1350.86C1580.81 1352.01 1583.24 1353.39 1584.95 1358.41L1560.24 1353.41C1559.04 1354.41 1557.45 1354.78 1556.46 1352.41C1555.2 1349.32 1556.96 1348.47 1559.57 1348.75Z" fill="#1A114D"></path> <path d="M1604.91 1328.14C1612.3 1331.4 1622.35 1337.14 1627.25 1336.83C1630.77 1336.62 1637.78 1336.11 1642.77 1338.9C1645.38 1340.26 1647.68 1342.14 1649.53 1344.43C1648.01 1341.77 1654.79 1345.93 1658.05 1351.2C1667.74 1366.85 1646.44 1393.72 1641.14 1394.09C1639.9 1394.18 1632.14 1401.09 1626.63 1399.72C1609.63 1392.25 1618.5 1359.46 1620.13 1353.63C1620.66 1351.74 1620.83 1340.56 1620.83 1340.56C1620.69 1340.26 1599.89 1333.83 1604.91 1328.14Z" fill="#1A114D"></path> <path d="M1606.79 1657.49C1607.13 1657.06 1607.79 1657.31 1608.73 1658.24C1612.18 1659.95 1615.48 1661.88 1616.93 1667.09C1614.37 1667.63 1610.93 1666.31 1606.76 1663.36C1598.8 1654.71 1603.94 1657.07 1606.79 1657.49Z" fill="#1884C7"></path> <path d="M1651.69 1257.59C1648.69 1259.88 1643.29 1269.41 1643.13 1270.04C1643.13 1270.18 1644.21 1271.34 1644.69 1272.04C1646.1 1274.54 1646.29 1276.76 1644.2 1278.43C1640.27 1278.09 1633.29 1273.57 1633.29 1273.57C1632.98 1273.79 1624.4 1285.89 1619.02 1284.57C1616.2 1283.97 1613.67 1282.44 1611.83 1280.23C1610.48 1279.81 1609.25 1279.07 1608.25 1278.08C1607.24 1277.09 1606.48 1275.87 1606.04 1274.53L1605.87 1274.67C1604.17 1272.28 1604.12 1270.09 1605.52 1268.06C1605.86 1265.91 1606.49 1263.81 1607.38 1261.82C1606.2 1242.69 1643.22 1238.2 1643.22 1238.2C1645 1237.55 1664.43 1210.31 1666.22 1203.2C1667.11 1199.58 1664.89 1187.47 1670.79 1181.32C1682.92 1168.66 1680.39 1210.6 1675.38 1216.74C1666.07 1228.07 1663.57 1248.58 1651.69 1257.59Z" fill="#1A114D"></path> <path d="M1695.27 831.35C1684.42 841.79 1665.93 866.99 1664.61 871.8C1664.06 873.8 1661.69 881.38 1655.85 886.99C1655.37 887.528 1654.93 888.092 1654.51 888.68C1653.64 890.063 1653.03 891.586 1652.68 893.18C1650.59 895.52 1648.5 897.853 1646.43 900.18C1646.21 900.751 1645.91 901.286 1645.53 901.77C1644.95 903.07 1644.37 904.36 1643.8 905.65C1642.67 905.681 1641.54 905.567 1640.44 905.31C1620.25 913.71 1651.51 876.21 1658.67 870.13C1659.12 869.75 1659.5 868.13 1659.92 867.19C1659.92 867.19 1659.92 867.19 1659.92 867.14C1658.73 865.71 1655.98 866.47 1654.51 865.44L1653.6 867.08C1646.27 868.413 1646.96 867.153 1655.69 863.3C1656.21 861.95 1656.69 860.61 1657.26 859.3L1660.26 857.49C1672.9 841.23 1685.44 819.99 1699.89 810.02C1701.46 809.128 1703.09 808.336 1704.76 807.65C1706.82 803.65 1709.51 801.53 1713.14 802.38C1711.14 806.307 1709.18 810.24 1707.25 814.18C1705.44 820.46 1701 825.83 1695.27 831.35Z" fill="#1A114D"></path> <path d="M1919.86 1208C1919.69 1208.57 1919.55 1209.15 1919.45 1209.73C1901.32 1234.48 1883.22 1229.84 1878.74 1237.34C1878.17 1238.52 1877.5 1239.66 1876.74 1240.73L1876.5 1241.22C1876.25 1241.46 1876.02 1241.7 1875.78 1241.95C1876.27 1245.18 1876.34 1248.32 1874.29 1250.95L1872.29 1253.14C1871.98 1257.52 1869.42 1259.19 1866.07 1259.92C1857.87 1279.27 1852.95 1302.48 1842.96 1318.46C1842.32 1319.64 1841.39 1320.65 1840.26 1321.37C1832.88 1337.22 1809.66 1380.05 1796.2 1366.74C1794.33 1364.89 1793.93 1360.22 1795.81 1357.39C1803.81 1341.21 1822.02 1321.99 1828.06 1311.09C1832.54 1302.98 1842.58 1286.09 1845.77 1279.69C1846.32 1278.58 1845.99 1275.56 1846.1 1273.5C1819.1 1260.5 1768.86 1305.81 1770.59 1267.41C1771.27 1252.25 1787.48 1226.97 1794.68 1206.3C1798.6 1195.03 1799.49 1154.19 1785.99 1177.62C1784.99 1179.32 1786.41 1182.23 1787.52 1184.28C1792.93 1189.03 1791.9 1193.78 1784.52 1198.46C1775.36 1200.19 1772.52 1194.7 1774.86 1182.89C1775.93 1177.57 1781.01 1180.34 1783.41 1177.68C1775.48 1166.51 1764.49 1157.88 1751.75 1152.84C1747.91 1153.42 1745.19 1151.84 1743.57 1148.16C1728.07 1138.86 1722.72 1123.03 1720.48 1105.61C1716.65 1100.99 1716.97 1095.23 1717.68 1089.37C1715.9 1067.26 1735.68 1055.24 1745.56 1039.23C1758.21 1018.7 1745.22 1008.48 1750.83 998.12C1764.14 973.48 1786.13 963.36 1781.13 963.33C1777.13 963.33 1746.77 989.07 1729.47 998C1703.98 1011.18 1664.23 1035 1703.02 988.09C1704.53 986.27 1705.76 983.49 1707.93 981.72C1717.58 974.67 1712.87 940.94 1700.93 942.95C1697.95 943.377 1694.91 943.183 1692.01 942.38C1683.72 938.84 1683.64 930.19 1683.16 921.95C1683.24 920.894 1683.18 919.831 1682.99 918.79C1682.91 918.493 1682.86 918.188 1682.85 917.88C1676.63 888.23 1681.64 852.35 1702.85 830.62C1715.78 817.37 1771.11 788.94 1771.11 788.94C1771.11 788.94 1767.47 773.67 1764.7 766.87C1763.16 750.39 1758.59 738.29 1737.27 739.53C1736.55 739.498 1735.84 739.421 1735.13 739.3C1729.13 741.51 1724.49 741.48 1720.65 740.11C1719.8 740.26 1718.98 740.38 1718.11 740.55C1710.36 738.55 1702.3 737.44 1689.74 748.55C1687.61 749.2 1687.74 722.33 1664.08 715.36C1650.7 711.42 1630.02 726.64 1626.08 723.51C1625.54 723.08 1621.02 724.28 1622.78 720.83L1622.85 720.76L1622.03 720.85L1621.45 720.66L1620.03 720.87C1637.03 749.55 1645.45 783.19 1613.67 806.32C1608.14 810.32 1605.67 816.69 1598.82 819.72C1596.26 823.85 1590.23 826.45 1588.49 830.9C1584.29 834.82 1580.73 839.05 1576.83 843.08C1564.48 852.43 1561.91 847.91 1561.4 837.94C1561.24 834.94 1566.75 828.56 1564.88 825.1C1561.51 800.42 1585.26 781.1 1588.39 762.67C1588.44 762.36 1588.5 761.85 1588.6 761.41C1582.97 764.51 1575.6 765 1573.42 764.18C1570.14 762.96 1577.35 750.64 1577.25 750.18C1576.96 748.94 1562.16 747.78 1553.74 747.84C1541.99 747.92 1519.87 741.92 1506.26 736.99C1635.75 627.481 1799.91 567.505 1969.5 567.75C2275.78 567.75 2537.27 759.34 2640.78 1029.19C2639.33 1029.56 2637.93 1030.11 2636.61 1030.82C2616.76 1041.64 2607.09 1074.52 2589.04 1083.14H2588.96C2586.57 1086.79 2584.96 1085.05 2582.96 1082.22C2581.36 1079.91 2580.12 1077.36 2579.29 1074.67C2578.29 1070.92 2578.6 1065.78 2579.19 1061.15C2578.96 1059.93 2578.5 1058.77 2577.83 1057.73C2575.55 1035.86 2620.69 994.39 2620.69 994.39C2620.69 994.39 2576.22 1022.95 2568.84 1043.48C2568.3 1045.34 2567.63 1047.16 2566.84 1048.92C2566.36 1050.52 2565.91 1052.13 2565.48 1053.75C2561.66 1062.75 2555.67 1068.48 2548.12 1071.91C2547.28 1072.01 2546.46 1072.23 2545.68 1072.54C2545.12 1073.03 2544.42 1073.33 2543.68 1073.41C2538.8 1075.91 2526.98 1081.62 2523.68 1073.41C2519.92 1063.94 2535.68 1052.54 2533.68 1049.31C2533.36 1048.8 2531.85 1047.76 2531.88 1045.78C2531.19 1044.86 2530.58 1043.88 2530.04 1042.86C2529.76 1042.48 2529.42 1042.14 2529.04 1041.86L2524.48 1041.03C2522.56 1041.57 2520.59 1042.7 2518.7 1042.73C2488.06 1044.8 2489.24 953.32 2489.24 953.32C2488.01 953.93 2473.48 989.91 2462.49 976.54C2461.66 975.54 2460.87 974.24 2460.01 973.15C2459.16 973.111 2458.36 972.744 2457.78 972.126C2457.2 971.508 2456.88 970.689 2456.89 969.84C2456.34 969.323 2455.82 968.775 2455.33 968.2L2452.96 968.07C2452.7 968.94 2407.9 1004.65 2418.21 1006.27C2451.37 1010.44 2483.39 1019.59 2506.95 1039.81C2507.81 1040.54 2508.7 1041.51 2509.58 1042.36L2511.68 1042.44C2511.94 1043.44 2512.21 1044.44 2512.47 1045.44C2512.85 1045.88 2513.27 1046.26 2513.63 1046.73C2515.63 1051.94 2514.86 1058.12 2513.63 1063.85C2506.63 1096.67 2468.2 1095.3 2448.63 1091.27C2445.11 1090.55 2440.02 1088.74 2436.54 1085.02C2434.23 1102.46 2431.63 1136.53 2439.85 1142.02C2440.5 1142.19 2441.18 1142.28 2441.85 1142.27C2443.34 1141.91 2444.94 1140.66 2446.48 1139.85C2454.03 1136.72 2461.15 1136.85 2467.63 1142.18C2473.63 1144.85 2480.34 1149.97 2485.07 1151.42C2485.67 1151.5 2486.27 1151.53 2486.87 1151.5H2487.02C2486.93 1151.34 2486.86 1151.18 2486.8 1151.01C2487.64 1147.49 2490.07 1146.34 2492.52 1145.26C2496.98 1143.98 2501.58 1143.26 2506.22 1143.1C2507.95 1143.4 2509.73 1143.28 2511.41 1142.76C2513.08 1142.24 2514.61 1141.33 2515.87 1140.1C2538.16 1131.17 2555.51 1159.71 2575.29 1152.63C2590.52 1147.18 2607.72 1130.83 2619.49 1116.91C2619.49 1116.48 2619.56 1116.27 2619.61 1115.83C2619.45 1115.2 2619.24 1114.58 2618.98 1113.98C2621.98 1097.11 2644.29 1097.55 2664.2 1101.98C2697.44 1227.88 2696.05 1360.42 2660.2 1485.6C2650.97 1480.2 2642.65 1475.87 2635.98 1475.38C2634.29 1475.34 2632.64 1474.84 2631.22 1473.93C2629.8 1473.01 2628.66 1471.72 2627.93 1470.2V1470.2C2623.64 1469.44 2578.4 1489.67 2576.68 1492.2C2566.94 1506.45 2579.44 1530.36 2573.85 1547.07C2565.77 1571.24 2539.68 1586.21 2532.28 1611.28C2517.42 1661.64 2530.49 1718.86 2506.96 1761.04C2506.24 1762.4 2505.7 1763.85 2505.37 1765.36C2474.37 1800.03 2440.1 1831.64 2403.03 1859.73C2390.35 1847.26 2379.33 1832.73 2371.62 1825.73C2369.08 1823.43 2367.33 1820.39 2366.62 1817.03V1817.03L2366.46 1817.27C2364.7 1814.19 2363.01 1811.08 2364.09 1806.95C2364.5 1806.47 2364.88 1805.95 2365.29 1805.44C2363.14 1801.77 2360.04 1798.22 2358.19 1795.24C2355.73 1791.24 2355.76 1785.17 2356.45 1779.91C2359.55 1774.83 2354.82 1774.05 2353.45 1771.41C2353.4 1771.41 2353.37 1771.41 2353.32 1771.41C2352.42 1771.08 2351.61 1770.54 2350.94 1769.85C2345.18 1759.25 2354.6 1755.68 2356.04 1747.36C2350.76 1751.52 2349.17 1759.36 2343.98 1761.58C2342.62 1761.58 2341.35 1761.4 2340.87 1759.09C2340.88 1758.48 2340.72 1757.87 2340.41 1757.34C2337.84 1747.94 2337.25 1738.15 2335.77 1728.55C2352.15 1668.62 2286.6 1630.48 2312.27 1575.15C2320.72 1556.93 2320.1 1517.33 2303.06 1502.75C2301.2 1501.16 2300.59 1497.32 2298.89 1494.98C2291.65 1470.35 2273.02 1439.59 2260.3 1429.15C2258.3 1427.53 2256.23 1423.88 2255.42 1420.24C2246.21 1396.03 2239.91 1350.43 2246.36 1344.07C2246.52 1343.91 2247.5 1343.85 2248.06 1343.62C2250.88 1337.54 2253.06 1338.62 2254.94 1344.5C2267.52 1349.74 2318.43 1354.97 2310.22 1345.5C2307.58 1342.5 2288.76 1339.5 2280.77 1332.88C2278.77 1331.27 2276.53 1329.57 2274.54 1327.69C2250.03 1308.37 2175.89 1231.69 2199.27 1213.26C2206.98 1207.19 2231.65 1196.46 2233.96 1187.26C2234.37 1185.6 2231.59 1184.45 2229.8 1184.12C2227.03 1185.86 2224.2 1186.64 2221.25 1185.51C2215.7 1186.02 2210.25 1185.87 2205 1183.84C2182.75 1185.55 2125.78 1196.37 2125.33 1202.6C2125.25 1203.6 2126.84 1207.35 2124.71 1209.5C2117.5 1217.76 2107.53 1220.71 2099.07 1216.73C2097.24 1215.86 2095.19 1214.36 2093.26 1213.18L2093.41 1213.52C2088.21 1220.21 2089.54 1230.04 2084.81 1236.91C2084.49 1238.32 2084.17 1239.73 2083.81 1241.13C2063.48 1275.49 2046.61 1322.04 2026.81 1346.2C2021.34 1352.88 2006.16 1322.28 2003.81 1318.79C2003.11 1317.69 2002.74 1316.42 2002.74 1315.12C2002.74 1313.82 2003.11 1312.55 2003.81 1311.45C2005.2 1306.85 2005.54 1302 2004.81 1297.25C1982.57 1246.65 1943.82 1177 1919.86 1208ZM2454.72 958.67C2454.72 958.84 2455.25 959.19 2455.51 959.45C2458.3 956.07 2465.2 952.55 2465.35 952C2465.59 951.21 2460.69 947.39 2458.57 945.15C2452.93 944.39 2456.57 949.26 2455.57 951.41C2455.79 953.93 2454.47 957.59 2454.72 958.67ZM2244.89 1177.88C2245.38 1178.27 2245.89 1178.68 2246.34 1179.13C2269.34 1198.85 2307.46 1174 2305.18 1150.24C2304.88 1147.09 2302.72 1148.16 2301.18 1149.76C2291.59 1167.07 2277.84 1174.76 2261.67 1177.04C2261.17 1176.84 2260.67 1176.73 2260.15 1176.56C2255.5 1179.28 2251.49 1176.65 2247.45 1174.38C2246.72 1174.21 2245.96 1174.15 2245.21 1174.21C2244.46 1174.56 2244.57 1176.66 2244.89 1177.88V1177.88Z" fill="#493F82"></path> <path d="M2481.96 782.69C2471.52 798.44 2449.96 812.36 2410.69 821.32C2257.63 856.24 2364.35 832.32 2230.95 773.4C2097.55 714.48 2051.22 745.32 1975.4 734.08C1899.58 722.84 1858.51 648.43 1881.85 618.94C1891.46 606.79 1867.17 591.55 1853.76 577.04C1892 570.852 1930.67 567.749 1969.4 567.76C2170.11 567.76 2351.57 650 2481.96 782.69Z" fill="#1A114D"></path> <path d="M2278.83 1702.55C2279.65 1704.76 2278.83 1707.2 2279.91 1709.37C2273.41 1777.05 2243.65 1712.57 2234.91 1689.3C2234.62 1688.55 2234.18 1687.65 2233.81 1686.83C2214.21 1668.99 2201.81 1609.71 2226.5 1591.53C2242.31 1584.77 2243.86 1617.71 2246.41 1624.92C2246.54 1625.18 2246.71 1625.43 2246.91 1625.65C2246.85 1626.42 2246.73 1627.19 2246.54 1627.94C2246.62 1629.25 2246.72 1630.55 2246.9 1631.75C2249.18 1630.53 2251.79 1630.94 2254.18 1632.66C2270.44 1629.54 2270.23 1665.3 2269.42 1673.22C2269.34 1673.97 2270.66 1676.12 2271.12 1677.68L2272.64 1677.98C2272.81 1679.7 2272.68 1681.43 2272.26 1683.11C2272.68 1686.47 2271.37 1691.56 2271.87 1692.9C2272.45 1694.55 2277.57 1697.72 2278.83 1702.55Z" fill="#1A114D"></path> <path d="M2643.12 1040.79C2643.26 1039.69 2643.51 1038.62 2643.86 1037.57C2644.54 1039.42 2645.2 1041.28 2645.86 1043.14C2644.83 1043.09 2643.9 1042.39 2643.12 1040.79Z" fill="#1884C7"></path> <path d="M2244.63 1200.42C2272.63 1211.96 2293.21 1273.75 2345.63 1305.57C2398.05 1337.39 2420.51 1338.25 2472.94 1329.4C2525.37 1320.55 2542.21 1299.31 2559.06 1342.69C2574.5 1382.44 2550.66 1509.11 2556.64 1574.34C2546.99 1585.76 2536.54 1596.86 2532.28 1611.34C2517.42 1661.7 2530.49 1718.92 2506.96 1761.1C2506.24 1762.46 2505.7 1763.91 2505.37 1765.42C2474.37 1800.09 2440.1 1831.7 2403.03 1859.79C2390.35 1847.32 2379.33 1832.79 2371.62 1825.79C2369.08 1823.49 2367.33 1820.44 2366.62 1817.09V1817.09L2366.46 1817.33C2364.7 1814.25 2363.01 1811.14 2364.09 1807.01C2364.5 1806.53 2364.88 1806.01 2365.29 1805.5C2363.14 1801.83 2360.04 1798.28 2358.19 1795.3C2355.73 1791.3 2355.76 1785.23 2356.45 1779.97C2359.55 1774.89 2354.82 1774.11 2353.45 1771.47C2353.4 1771.47 2353.37 1771.47 2353.32 1771.47C2352.42 1771.14 2351.61 1770.6 2350.94 1769.91C2345.18 1759.31 2354.6 1755.74 2356.04 1747.42C2350.76 1751.58 2349.17 1759.42 2343.98 1761.64C2342.62 1761.64 2341.35 1761.46 2340.87 1759.15C2340.88 1758.53 2340.72 1757.93 2340.41 1757.4C2337.84 1748 2337.25 1738.21 2335.77 1728.61C2352.15 1668.68 2286.6 1630.54 2312.27 1575.21C2320.72 1556.99 2320.1 1517.39 2303.06 1502.81C2301.2 1501.22 2300.59 1497.38 2298.89 1495.04C2291.65 1470.41 2273.02 1439.65 2260.3 1429.21C2258.3 1427.59 2256.23 1423.94 2255.42 1420.3C2246.21 1396.09 2239.91 1350.49 2246.36 1344.13C2246.52 1343.97 2247.5 1343.91 2248.06 1343.68C2250.88 1337.6 2253.06 1338.68 2254.94 1344.56C2267.52 1349.8 2318.43 1355.03 2310.22 1345.56C2307.58 1342.56 2288.76 1339.56 2280.77 1332.94C2278.77 1331.33 2276.53 1329.63 2274.54 1327.75C2250.03 1308.43 2175.89 1231.75 2199.27 1213.32C2204.27 1209.42 2216.15 1203.59 2224.68 1197.5C2231.77 1197.15 2238.64 1198 2244.63 1200.42Z" fill="#1A114D"></path> <path d="M1781.06 963.299C1777.06 963.299 1746.7 989.039 1729.4 997.969C1703.91 1011.15 1664.16 1034.97 1702.95 988.059C1704.46 986.239 1705.69 983.459 1707.86 981.689C1717.51 974.639 1712.8 940.909 1700.86 942.919C1697.88 943.347 1694.84 943.152 1691.94 942.349C1683.65 938.809 1683.57 930.159 1683.09 921.919C1683.17 920.863 1683.12 919.801 1682.92 918.759C1682.84 918.463 1682.79 918.157 1682.78 917.849C1676.56 888.199 1681.57 852.319 1702.78 830.589C1706.44 827.147 1710.41 824.045 1714.63 821.319C1732.06 829.979 1749.94 838.409 1767.16 841.269C1831.55 851.939 1843.89 904.919 1915.03 930.039C1986.17 955.159 1956.22 1030.36 2014.25 1082.78C2072.28 1135.2 2134.08 1095.89 2194.79 1127.71C2220.99 1141.45 2221.98 1164.24 2214.65 1185.71C2211.36 1185.62 2208.1 1184.99 2205.02 1183.84C2182.77 1185.55 2125.8 1196.37 2125.35 1202.6C2125.27 1203.6 2126.86 1207.35 2124.73 1209.5C2117.52 1217.76 2107.55 1220.71 2099.09 1216.73C2097.26 1215.86 2095.21 1214.36 2093.28 1213.18L2093.43 1213.52C2088.23 1220.21 2089.56 1230.04 2084.83 1236.91C2084.51 1238.32 2084.19 1239.73 2083.83 1241.13C2063.5 1275.49 2046.63 1322.04 2026.83 1346.2C2021.36 1352.88 2006.18 1322.28 2003.83 1318.79C2003.13 1317.69 2002.76 1316.42 2002.76 1315.12C2002.76 1313.82 2003.13 1312.54 2003.83 1311.45C2005.22 1306.85 2005.56 1302 2004.83 1297.25C1982.64 1246.64 1943.83 1177.03 1919.9 1207.94C1919.73 1208.51 1919.6 1209.09 1919.49 1209.67C1901.36 1234.42 1883.26 1229.78 1878.78 1237.28C1878.21 1238.46 1877.54 1239.6 1876.78 1240.67L1876.54 1241.16C1876.29 1241.4 1876.06 1241.64 1875.82 1241.89C1876.31 1245.12 1876.38 1248.26 1874.33 1250.89L1872.33 1253.08C1872.02 1257.46 1869.46 1259.13 1866.11 1259.86C1857.91 1279.21 1852.99 1302.42 1843 1318.4C1842.36 1319.58 1841.43 1320.59 1840.3 1321.31C1832.92 1337.16 1809.7 1379.99 1796.24 1366.68C1794.37 1364.83 1793.97 1360.16 1795.85 1357.33C1803.85 1341.15 1822.06 1321.93 1828.1 1311.03C1832.58 1302.92 1842.62 1286.03 1845.81 1279.63C1846.36 1278.52 1846.03 1275.5 1846.14 1273.44C1819.14 1260.44 1768.9 1305.75 1770.63 1267.35C1771.31 1252.19 1787.52 1226.91 1794.72 1206.24C1798.64 1194.97 1799.53 1154.13 1786.03 1177.56C1785.03 1179.26 1786.45 1182.17 1787.56 1184.22C1792.97 1188.97 1791.94 1193.72 1784.56 1198.4C1775.4 1200.13 1772.56 1194.64 1774.9 1182.83C1775.97 1177.51 1781.05 1180.28 1783.45 1177.62C1775.52 1166.45 1764.53 1157.82 1751.79 1152.78C1747.95 1153.36 1745.23 1151.78 1743.61 1148.1C1728.11 1138.8 1722.76 1122.97 1720.52 1105.55C1716.69 1100.93 1717.01 1095.17 1717.72 1089.31C1715.94 1067.2 1735.72 1055.18 1745.6 1039.17C1758.25 1018.64 1745.26 1008.42 1750.87 998.059C1764.07 973.449 1786.06 963.329 1781.06 963.299Z" fill="#1A114D"></path> <path d="M2194.8 1222.56C2194.8 1220.77 2195.21 1219 2195.98 1217.39C2196.76 1215.78 2197.89 1214.36 2199.28 1213.24C2200.13 1212.57 2201.21 1211.84 2202.41 1211.07C2199.88 1215.22 2197.28 1219.09 2194.8 1222.56Z" fill="#1178B8"></path> <path d="M1567.12 1470.32L1562.92 1473.02L1558.03 1474.55C1558.03 1474.55 1556.22 1465.8 1557.03 1461.31C1557.94 1456.59 1568.8 1449.14 1576.13 1453.69C1580.53 1456.43 1581.65 1461.08 1582.13 1464.59C1582.61 1468.1 1567.12 1470.32 1567.12 1470.32Z" fill="#AD263D"></path> <path d="M1577.54 1464.18C1577.54 1464.18 1593.07 1463.18 1593.08 1465.24C1593.09 1467.3 1563.45 1472.24 1561.08 1473.61C1561.08 1473.61 1562.47 1465.87 1577.54 1464.18Z" fill="#311E69"></path> <path d="M1742.99 1399.21C1742.99 1399.21 1736.99 1393.21 1737.18 1389.86C1737.24 1388.91 1737.51 1387.98 1737.99 1387.15C1738.46 1386.32 1739.12 1385.61 1739.91 1385.07C1739.91 1385.07 1736.15 1370.35 1737.75 1370.01C1739.35 1369.67 1742.54 1382.44 1743.34 1382.44C1744.14 1382.44 1743.34 1369.88 1745.27 1370C1747.2 1370.12 1746.19 1381.42 1747.33 1382.33C1748.47 1383.24 1752.57 1386.09 1752.8 1388.15C1753.03 1390.21 1753.14 1399.78 1750.07 1400.24C1747 1400.7 1742.99 1399.21 1742.99 1399.21Z" fill="#AD263D"></path> <path d="M1572.23 1717.55C1578.78 1790.05 1544.58 1887.48 1495.52 1979.55C1492.78 1984.69 1474.94 1979.64 1474.94 1979.64C1474.37 1972.11 1483.94 1864.06 1506.14 1825.14C1514.25 1810.96 1515.82 1702.87 1516.06 1699.36C1517.49 1678.71 1567.11 1661.24 1572.23 1717.55Z" fill="#FF6161"></path> <path d="M1505.23 1826.73C1508.52 1832.34 1510.6 1841.68 1508.17 1857.26C1502.28 1895.12 1488.9 1957.65 1481.39 1968.7C1479.64 1971.25 1477.47 1973.49 1474.98 1975.33C1476.12 1953.74 1485.59 1863.32 1505.23 1826.73Z" fill="#FF6161"></path> <path d="M1591.23 1506.23C1591.23 1506.23 1660.23 1517.14 1678 1508.86C1708.75 1494.54 1723.51 1388.33 1748.52 1396.12C1773.53 1403.91 1741.96 1514.53 1696.66 1549.86C1670.07 1570.59 1612.81 1560.49 1597.85 1548.86C1592.79 1544.91 1591.23 1506.23 1591.23 1506.23Z" fill="#FF6161"></path> <path d="M1669.08 1560.6L1674.26 1522.05C1674.26 1522.05 1684.11 1542.18 1685.03 1556.38C1679.89 1558.38 1674.54 1559.8 1669.08 1560.6V1560.6Z" fill="#1E1240"></path> <path d="M1558.03 1474.56C1552.66 1481.84 1548.01 1489.62 1544.12 1497.79C1537.77 1511.22 1546.48 1528.03 1548.02 1528.85C1549.56 1529.67 1583.58 1536.54 1587.17 1521.06C1590.76 1505.58 1593.17 1472.45 1583.24 1466.46C1569.78 1458.37 1558.03 1474.56 1558.03 1474.56Z" fill="url(#paint1_linear)"></path> <path d="M1668.67 1511.19C1674.15 1519.55 1684.43 1542.19 1676.96 1561.83C1648.25 1569.29 1609.74 1558.11 1597.83 1548.83C1592.83 1544.9 1591.21 1506.22 1591.21 1506.22C1591.21 1506.22 1643.37 1514.48 1668.67 1511.19Z" fill="#1E1240"></path> <path d="M1618.41 1531.07C1618.41 1531.07 1626.26 1550.31 1628.9 1561.14C1621.14 1559.47 1613.57 1556.99 1606.31 1553.75L1618.41 1531.07Z" fill="#1E1240"></path> <path d="M1529.79 1612.54C1560.07 1618.78 1591.46 1616.91 1620.79 1607.14C1624.14 1614.35 1627.79 1621.5 1630.23 1627.14C1641.23 1652.36 1649.79 1667.2 1654.87 1723.51C1661.42 1796.02 1639.87 1892.63 1581.16 1985.43C1578.04 1990.36 1563.92 1985.99 1563.92 1985.99C1563.35 1978.46 1572.92 1870.4 1595.12 1831.49C1603.23 1817.3 1591.12 1700.49 1587.66 1701.02C1585.18 1701.37 1518.74 1626.91 1529.79 1612.54Z" fill="#FF6161"></path> <path d="M1565.44 1912.98C1578.51 1916.39 1608.51 1926.52 1623.86 1927.87C1657.72 1854.77 1660.01 1780.38 1654.86 1723.48C1649.78 1667.17 1641.21 1652.33 1630.22 1627.11C1626.15 1617.76 1618.77 1604.17 1614.95 1593.11C1597.09 1593.25 1562.74 1593.46 1542.86 1593.29C1536.57 1610.58 1504.46 1627.18 1507.62 1686.08C1508.15 1695.92 1505.5 1799.99 1502.16 1807.36C1486.44 1841.99 1487.8 1891.04 1473.24 1905.68C1481.12 1914.9 1509.84 1914.18 1528.54 1913.77C1583.08 1849.84 1585.49 1701.31 1587.65 1700.98C1591.13 1700.46 1597.39 1817.13 1589.29 1831.32C1578.47 1850.32 1570.54 1880.82 1565.44 1912.98Z" fill="#FFFBFB"></path> <path d="M1529.79 1612.54C1536 1604.48 1541.53 1598.31 1543.33 1591.91C1549.33 1570.53 1508.47 1547.53 1529.85 1519.91C1539.07 1508.01 1589.28 1497.03 1601.85 1512.22C1604.93 1515.95 1617.29 1525.43 1618.85 1532.36C1622.08 1546.86 1612.37 1563.01 1612.54 1581.93C1612.6 1588.26 1616.47 1597.76 1620.83 1607.15C1591.49 1616.93 1560.08 1618.79 1529.79 1612.54V1612.54Z" fill="#1E1240"></path> <path d="M1594.23 1833.06C1597.52 1838.67 1599.6 1848.06 1597.18 1863.59C1591.28 1901.45 1577.9 1963.98 1570.39 1975.03C1568.64 1977.58 1566.47 1979.83 1563.98 1981.66C1565.14 1960.07 1574.6 1869.62 1594.23 1833.06Z" fill="#FF6161"></path> <path d="M1615.61 1789.49C1614.33 1828.44 1626 1870.11 1641.84 1879.78C1637.06 1896.24 1631.04 1912.32 1623.84 1927.87C1608.49 1926.52 1578.49 1916.39 1565.42 1912.98C1570.52 1880.82 1578.42 1850.28 1589.28 1831.33C1596.94 1817.91 1591.75 1712.82 1588.23 1701.92C1592.33 1708.48 1616.92 1749.7 1615.61 1789.49Z" fill="#FFFBFB"></path> <path d="M1529.79 1612.54C1536 1604.48 1541.53 1598.31 1543.33 1591.91C1549.33 1570.53 1508.47 1547.53 1529.85 1519.91C1533.97 1514.6 1546.27 1509.47 1559.73 1506.77C1558.53 1511.36 1557.19 1518.77 1558.88 1524.86C1561.55 1534.5 1571.62 1590.27 1567.88 1603.58C1566.78 1607.5 1565.48 1611.91 1564.18 1616.18C1552.62 1616.13 1541.1 1614.91 1529.79 1612.54V1612.54Z" fill="#1E1240"></path> <path d="M1565.11 1485.7L1564.51 1508.83C1564.42 1512.64 1573.67 1522.55 1579.74 1517.83C1581.52 1516.45 1579.28 1511.18 1577.68 1507.2L1573.42 1487.27L1565.11 1485.7Z" fill="#FF6161"></path> <path d="M1575.95 1499.09C1567.57 1499.09 1566.12 1489.98 1566.12 1489.98L1574.03 1490.1L1575.95 1499.09Z" fill="#311E69"></path> <path d="M1563.91 1471.77L1562.44 1480.63C1561.27 1487.63 1565.7 1494.69 1572.71 1496C1579.17 1497.21 1585.47 1493.54 1586.5 1485.37C1587.42 1478.1 1582.31 1471.77 1580.5 1468.46C1576.23 1460.92 1566.35 1461.69 1563.91 1471.77Z" fill="#FF6161"></path> <path d="M1573.52 1493.12C1576.18 1493.22 1579.73 1493.32 1582.89 1490.61C1584.59 1489.15 1586.2 1485.73 1586.53 1484.96C1586.53 1485.1 1586.53 1485.23 1586.53 1485.37C1585.53 1493.54 1579.2 1497.21 1572.74 1496C1570.68 1495.59 1568.76 1494.69 1567.14 1493.36C1565.51 1492.04 1564.24 1490.33 1563.43 1488.4C1566.15 1491.09 1569.71 1492.76 1573.52 1493.12Z" fill="#AD263D"></path> <path d="M1592.56 1968.62C1592.56 1968.62 1585.18 1985.39 1587.28 1990.55C1586.31 1991.45 1585.14 1992.13 1583.88 1992.53C1582.61 1992.93 1581.27 1993.05 1579.96 1992.87C1573.68 1992.11 1567.5 1990.74 1561.49 1988.77C1564.13 1981.84 1564.25 1967.17 1564.94 1963.16C1564.94 1963.16 1574.31 1967.05 1580.62 1968.03C1583.57 1968.49 1592.56 1968.62 1592.56 1968.62Z" fill="white"></path> <path d="M1580.23 2005.32C1592.47 2007.44 1606.48 2007.8 1613.43 2007.84C1613.54 2008.68 1613.57 2009.52 1613.49 2010.36C1613.14 2014.82 1567.88 2011.02 1560.61 2006.11C1558.61 2004.8 1557.91 2002.36 1558.06 1999.51C1565.29 2002.04 1572.7 2003.98 1580.23 2005.32V2005.32Z" fill="white"></path> <path d="M1580.23 2005.32C1572.7 2003.98 1565.28 2002.04 1558.06 1999.51C1558.29 1996.5 1559.16 1993.56 1560.61 1990.91C1560.96 1990.22 1561.27 1989.51 1561.53 1988.78C1567.54 1990.75 1573.72 1992.12 1580 1992.88C1581.32 1993.06 1582.65 1992.94 1583.92 1992.54C1585.19 1992.14 1586.35 1991.46 1587.32 1990.56C1587.32 1990.68 1587.42 1990.8 1587.47 1990.9C1588.53 1992.9 1591.98 1994.67 1596.73 1997.13C1603.51 2001.34 1612.49 2000.21 1613.43 2007.84C1606.44 2007.79 1592.43 2007.43 1580.23 2005.32Z" fill="#1E1240"></path> <path d="M1507.63 1686.09C1506.24 1660.21 1511.63 1642.49 1518.72 1629.3C1519.5 1640.98 1520.86 1660.52 1522.11 1675.11C1524.01 1697.32 1518.19 1766.51 1522.11 1800.9C1525.11 1827.47 1540.33 1868.3 1547.11 1885.48C1542.05 1895.6 1535.83 1905.09 1528.59 1913.78C1509.89 1914.19 1481.17 1914.91 1473.29 1905.69C1487.85 1891.05 1486.49 1842 1502.21 1807.37C1505.51 1800 1508.16 1695.93 1507.63 1686.09Z" fill="#FFFBFB"></path> <path d="M1535.72 1517.32C1535.72 1517.32 1463.72 1529.89 1434.24 1585.65C1404.76 1641.41 1509.14 1672.57 1521.71 1664.65C1534.28 1656.73 1477.98 1617.81 1471.96 1607.2C1467.82 1599.89 1491.9 1587.52 1514.43 1573.09C1524.59 1566.58 1533.28 1561.88 1538.43 1553.61C1552.15 1531.21 1535.72 1517.32 1535.72 1517.32Z" fill="#FF6161"></path> <path d="M1434.23 1585.6C1451.13 1553.69 1481.92 1535.93 1505.17 1526.6C1501.86 1535.09 1497.37 1543.06 1491.84 1550.3C1478.31 1567.73 1448.84 1585.97 1445.92 1598.07C1443 1610.17 1446.66 1618.56 1457.46 1626.97C1468.26 1635.38 1458.63 1637.15 1477.08 1643.97C1495.53 1650.79 1508.66 1655.97 1516.34 1663.61C1516.94 1664.18 1517.34 1664.94 1517.48 1665.76C1494.39 1667.76 1406.91 1637.22 1434.23 1585.6Z" fill="#FF6161"></path> <path d="M1514.43 1573.03C1509.61 1576.12 1504.72 1579.11 1500.05 1582.03C1489.93 1569.52 1484.05 1547.03 1484.05 1547.03L1515.23 1572.54L1514.43 1573.03Z" fill="#1E1240"></path> <path d="M1482 1537.16C1499 1526.85 1517.48 1519.22 1536.79 1514.53C1536.79 1514.53 1555.6 1530.59 1541.79 1552.94C1535.52 1563.1 1522.98 1571.86 1510.2 1579.39C1502.68 1574.14 1483.91 1559.02 1482 1537.16Z" fill="#1E1240"></path> <path d="M1517.23 1657.69C1517.23 1657.69 1526.14 1646.11 1529.73 1645.59C1533.32 1645.07 1541.89 1645.7 1543.04 1644.26C1544.19 1642.82 1544.49 1646.26 1542.24 1647.03C1541.17 1647.3 1540.16 1647.75 1539.24 1648.36C1539.24 1648.36 1545.6 1648.57 1547.75 1650.21C1549.9 1651.85 1542.37 1655.13 1539.48 1656.15C1536.59 1657.17 1534.12 1656.87 1531.35 1661.48C1528.58 1666.09 1511.32 1669.68 1517.23 1657.69Z" fill="#FF6161"></path> <path d="M1545.82 1544.03C1545.82 1544.03 1548.64 1562.76 1540.13 1574.27C1537.51 1569.06 1533.94 1563.72 1530.79 1558.2L1545.82 1544.03Z" fill="#1E1240"></path> <path d="M1489.23 1557.87C1491.56 1557.17 1494.08 1556.54 1496.77 1556.01C1509.1 1553.61 1535.77 1531.92 1544.24 1524.83C1547.38 1531.66 1548.9 1541.47 1541.83 1552.94C1535.56 1563.1 1523.02 1571.86 1510.24 1579.39C1505.38 1576.02 1495.9 1568.56 1489.23 1557.87Z" fill="#1E1240"></path> <path d="M1501.96 1967.19C1501.96 1967.19 1494.68 1986.61 1496.96 1991.68C1496.03 1992.62 1494.9 1993.35 1493.65 1993.8C1492.4 1994.26 1491.07 1994.43 1489.75 1994.31C1483.45 1993.82 1477.21 1992.72 1471.12 1991.01C1473.45 1984.01 1475.6 1964.55 1476.12 1960.52C1479.83 1963.24 1484.02 1965.23 1488.47 1966.38C1491.39 1967.16 1501.96 1967.19 1501.96 1967.19Z" fill="white"></path> <path d="M1490.55 2006.73C1502.88 2008.31 1516.88 2008.08 1523.84 2007.81C1523.98 2008.64 1524.04 2009.49 1524 2010.33C1523.84 2014.8 1478.46 2012.95 1471 2008.33C1469 2007.1 1468.14 2004.69 1468.16 2001.84C1475.48 2004.07 1482.97 2005.7 1490.55 2006.73Z" fill="white"></path> <path d="M1490.55 2006.73C1482.97 2005.72 1475.47 2004.09 1468.15 2001.88C1468.26 1998.86 1469 1995.9 1470.33 1993.18C1470.65 1992.47 1470.92 1991.75 1471.16 1991.01C1477.25 1992.71 1483.49 1993.82 1489.79 1994.31C1491.11 1994.43 1492.44 1994.26 1493.69 1993.8C1494.94 1993.35 1496.07 1992.62 1497 1991.68L1497.16 1992.01C1498.32 1994.01 1501.83 1995.59 1506.68 1997.84C1513.68 2001.74 1522.57 2000.23 1523.84 2007.84C1516.88 2008.08 1502.88 2008.32 1490.55 2006.73Z" fill="#1E1240"></path> <path d="M3243.31 530.16L3201.49 461.11L3165.5 501.96L3222.14 563.23L3243.31 530.16Z" fill="#FF6161"></path> <path d="M972.832 470.69L931.012 421.93L895.022 450.78L951.662 494.04L972.832 470.69Z" fill="#FF6161"></path> <path d="M610.582 754.8L568.762 685.75L532.782 726.6L589.412 787.87L610.582 754.8Z" fill="#FF6161"></path> <path d="M3068.5 860.89L3081.77 887.15L3050.49 908.55L3029.09 881.56L3068.5 860.89Z" fill="#614CD4"></path> <path d="M1584.46 433.9L1595.39 385.12L1641.56 407.42L1638.26 441.7L1584.46 433.9Z" fill="#614CD4"></path> <path d="M1673.36 244.45L1694.76 268.2L1668.06 299.56L1637.93 277.35L1673.36 244.45Z" fill="#FFE388"></path> <path d="M1940.71 500.75L1958.52 474.19L1995.44 492.43L1981.27 527.07L1940.71 500.75Z" fill="#614CD4"></path> <path d="M3317.89 746.51L3335.82 772.77L3271.19 790.91L3264.64 767.18L3317.89 746.51Z" fill="#614CD4"></path> <path d="M688.359 511.94L701.629 538.2L670.349 559.59L648.949 532.61L688.359 511.94Z" fill="#614CD4"></path> <path d="M2794.63 439.9L2807.9 466.16L2776.62 487.56L2771.79 451.88L2794.63 439.9Z" fill="#614CD4"></path> <path d="M682.668 660.91L783.398 636L761.248 598.65L675.288 620.74L682.668 660.91Z" fill="#4CB4D4"></path> <path d="M1020.61 290.96L1051.44 340.4L1067.53 322.07L1040.77 280.03L1020.61 290.96Z" fill="#4CB4D4"></path> <path d="M376.399 541.02L419.309 501.61L398.329 489.17L361.939 523.22L376.399 541.02Z" fill="#4CB4D4"></path> <path d="M1484.64 675.08L1478.34 623.29L1437.6 630.8L1443.79 675.08H1484.64Z" fill="#4CB4D4"></path> <path d="M481.742 815.14L477.612 781.18L435.782 787.86L439.852 816.89L481.742 815.14Z" fill="#4CB4D4"></path> <path d="M3101.92 601.58L3126.24 640.48L3087.33 657.98L3061.47 619.48L3101.92 601.58Z" fill="#311E69"></path> <path d="M3161.14 850.47L3227.39 830.17L3243.31 869.75L3177.4 891.61L3161.14 850.47Z" fill="#311E69"></path> <path d="M2252.97 510.98L2269.58 537.56L2243.01 549.52L2237.43 517.86L2252.97 510.98Z" fill="#311E69"></path> <path d="M3033.95 450.41L3040.27 408.59L3003.59 391.09L3000.01 429.99L3033.95 450.41Z" fill="#FFE388"></path> <path d="M2184.75 400.63L2179.47 354.97L2136.01 347.07L2131.12 400.63H2184.75Z" fill="#FFE388"></path> <path d="M2907.13 768.53L2917.82 802.17L2886.7 807.03L2872.11 759.38L2907.13 768.53Z" fill="#FFE388"></path> <path d="M1180.74 420.42L1227.67 400.39L1233 426.3L1188.31 436.97L1180.74 420.42Z" fill="#FFE388"></path> <path d="M541.769 598.65L552.469 632.28L521.349 637.14L514.059 613.32L541.769 598.65Z" fill="#FFE388"></path> <path d="M571.21 882.81L581.91 916.45L550.79 921.31L543.5 897.48L571.21 882.81Z" fill="#FFE388"></path> <path d="M2974.92 505.85L2950.6 537.94L2932.12 505.85L2966.16 486.4L2974.92 505.85Z" fill="#A0DBDA"></path> <path d="M1815.94 431.86L1795.94 424.66L1809.21 410.3L1824.36 424.39L1815.94 431.86Z" fill="#A0DBDA"></path> <path d="M1694.76 524.73L1678.41 565.32L1649.88 536.93L1680.04 506.83L1694.76 524.73Z" fill="#A0DBDA"></path> <path d="M1407.64 463.38L1413.69 417.56L1450.29 423.23L1444.17 461.95L1407.64 463.38Z" fill="#A0DBDA"></path> <path d="M2690.58 463.73V422.46L2644.51 419.84V461.11L2690.58 463.73Z" fill="#FF6161"></path> <path d="M1945.66 286.125L1954.04 314.827L1910.99 327.393L1902.61 298.69L1945.66 286.125Z" fill="#FF6161"></path> <path d="M3056.97 680.25L3047.01 654.96L3023.57 658.85L3044.03 689.97L3056.97 680.25Z" fill="#FF6161"></path> <path d="M2448.17 365.54L2473.75 327.46L2505.62 355.81L2481.05 395.15L2448.17 365.54Z" fill="#311E69"></path> <path d="M682.491 389.9L642.162 368.04L667.372 333.63L708.852 354.38L682.491 389.9Z" fill="#311E69"></path> <path d="M2351.91 232.64L2314.64 270.72L2363.51 279.25L2381.88 249.23L2351.91 232.64Z" fill="#4CB4D4"></path> <path d="M2038.75 1874.14C2043.96 1816.47 2052.75 1801.28 2063.98 1775.45C2067.98 1766.2 2075.2 1752.9 2079.22 1741.81C2111.04 1747.72 2192.83 1774.58 2189.53 1835.81C2188.99 1845.89 2176.16 1960.4 2184.01 1963.08C2231.19 1979.23 2268.37 2034.37 2268.37 2034.37L2262.83 2049.37C2085.14 2034.17 2110.12 1851.47 2107.58 1851.09C2104.02 1850.55 2091.64 1970.17 2099.94 1984.7C2122.7 2024.55 2132.47 2135.21 2131.94 2142.92C2131.94 2142.92 2117.48 2147.4 2114.29 2142.35C2054.07 2047.28 2032.04 1948.34 2038.75 1874.14Z" fill="#FFC061"></path> <path d="M1996.22 2140.85C1996.22 2140.85 1994.58 2157.85 1997.14 2162.34C1996.35 2163.29 1995.36 2164.05 1994.24 2164.57C1993.12 2165.08 1991.9 2165.35 1990.66 2165.34C1984.78 2165.4 1978.91 2164.88 1973.12 2163.78C1974.72 2157.07 1974.73 2145.13 1974.89 2141.35L1996.22 2140.85Z" fill="white"></path> <path d="M1992.35 2176.83C2002.7 2177.05 2013.04 2176.49 2023.3 2175.15C2023.51 2175.9 2023.63 2176.68 2023.66 2177.46C2023.87 2181.62 1981.66 2183.57 1974.35 2179.92C1972.35 2178.92 1971.35 2176.78 1971.19 2174.12C1978.16 2175.59 1985.24 2176.49 1992.35 2176.83Z" fill="white"></path> <path d="M1992.35 2176.82C1985.25 2176.49 1978.18 2175.6 1971.22 2174.14C1971.08 2171.34 1971.53 2168.53 1972.54 2165.9C1972.78 2165.22 1972.99 2164.53 1973.14 2163.82C1978.92 2164.92 1984.8 2165.44 1990.68 2165.38C1991.92 2165.39 1993.14 2165.12 1994.26 2164.61C1995.38 2164.09 1996.37 2163.33 1997.16 2162.38C1997.21 2162.49 1997.27 2162.59 1997.33 2162.68C1998.56 2164.43 2001.95 2165.61 2006.63 2167.32C2013.39 2170.38 2021.55 2168.25 2023.33 2175.18C2013.06 2176.52 2002.71 2177.07 1992.35 2176.82V2176.82Z" fill="#1E1240"></path> <path d="M1907.46 2140.85C1907.46 2140.85 1905.82 2157.85 1908.38 2162.34C1907.59 2163.29 1906.6 2164.05 1905.48 2164.57C1904.36 2165.08 1903.14 2165.35 1901.9 2165.34C1896.02 2165.4 1890.15 2164.88 1884.37 2163.78C1885.96 2157.07 1885.98 2145.13 1886.13 2141.35L1907.46 2140.85Z" fill="white"></path> <path d="M1903.61 2176.83C1913.96 2177.05 1924.3 2176.49 1934.56 2175.15C1934.76 2175.9 1934.88 2176.68 1934.92 2177.46C1935.12 2181.62 1892.92 2183.57 1885.6 2179.92C1883.6 2178.92 1882.66 2176.78 1882.45 2174.12C1889.42 2175.59 1896.5 2176.49 1903.61 2176.83V2176.83Z" fill="white"></path> <path d="M1903.61 2176.82C1896.5 2176.49 1889.42 2175.59 1882.45 2174.12C1882.31 2171.32 1882.76 2168.51 1883.77 2165.88C1884.01 2165.2 1884.21 2164.51 1884.37 2163.8C1890.15 2164.9 1896.02 2165.42 1901.9 2165.36C1903.14 2165.37 1904.36 2165.1 1905.48 2164.59C1906.6 2164.07 1907.59 2163.31 1908.38 2162.36L1908.56 2162.66C1909.79 2164.41 1913.18 2165.59 1917.85 2167.3C1924.62 2170.36 1932.77 2168.23 1934.56 2175.16C1924.3 2176.51 1913.96 2177.06 1903.61 2176.82V2176.82Z" fill="#1E1240"></path> <path d="M2081.5 1659.14C2081.5 1659.14 2045.04 1670.81 2039.05 1670.14C2033.06 1669.47 2011.62 1666.61 2011.62 1666.61C2011.62 1666.61 2015.92 1684.01 2032.56 1686.78C2049.2 1689.55 2065.76 1690.63 2070.92 1684.38C2076.08 1678.13 2081.5 1659.14 2081.5 1659.14Z" fill="#FFD361"></path> <path d="M2083.54 1613.14C2085.48 1604.14 2092.54 1608.26 2092.54 1608.26C2092.54 1608.26 2097.42 1601.03 2107.54 1604.09C2118.8 1607.5 2121.19 1625.5 2128.68 1630.03C2136.17 1634.56 2179.97 1651.27 2158.91 1683.93C2150.97 1696.23 2099.18 1665.4 2092.49 1653.6C2085.8 1641.8 2081.54 1622.38 2083.54 1613.14Z" fill="#9889C4"></path> <path d="M2079.11 1749.84C2079.79 1744.84 2079.99 1740.25 2079.28 1736.84C2075.36 1717.84 2062.15 1703.84 2062.28 1688.6C2062.28 1681.32 2072.64 1669.16 2074.92 1664.76C2084.19 1646.84 2124.04 1646.84 2135.84 1656.76C2163.23 1679.76 2142.84 1720.64 2153.48 1740.76C2153.55 1740.95 2140.73 1762.37 2079.11 1749.84Z" fill="white"></path> <path d="M2062.22 1688.62C2062.22 1681.34 2072.58 1669.19 2074.86 1664.79C2078.42 1657.91 2086.49 1653.67 2095.74 1651.62C2091.74 1657.99 2086.24 1670.04 2089.11 1685.06C2093.21 1706.5 2109.01 1736.54 2112.98 1753.78C2101.58 1753.56 2090.23 1752.24 2079.08 1749.84C2079.76 1744.84 2079.96 1740.25 2079.25 1736.84C2075.36 1717.89 2062.15 1703.84 2062.22 1688.62Z" fill="#FFDBD7"></path> <path d="M2107.37 1634.3L2114.73 1653.58C2115.92 1656.76 2111.08 1667.83 2104.57 1665.64C2102.66 1665 2102.99 1659.91 2103.16 1656.09L2100.84 1638.09L2107.37 1634.3Z" fill="#FFD361"></path> <path d="M2102.22 1648.78C2105.91 1645.98 2107.79 1638.21 2107.79 1638.21L2101.17 1640.64L2102.22 1648.78Z" fill="#311E69"></path> <path d="M2137.75 1982.28C2140.42 1984.88 2143.09 1987.67 2145.69 1990.64C2162.51 2009.91 2221.91 2024.8 2240.9 2034.95C2250.24 2039.95 2258.41 2048.95 2256.24 2048.69C2195.09 2041.84 2159 2014.52 2137.75 1982.28Z" fill="#FFC061"></path> <path d="M2077.02 2008.82C2092.49 2056.05 2096.56 2084.54 2107.14 2113.04C2114.32 2132.35 2115.14 2143.8 2114.24 2142.32C2073.18 2077.46 2049.89 2010.79 2041.36 1951.39C2052.22 1943.48 2064.43 1970.39 2077.02 2008.82Z" fill="#FFC061"></path> <path d="M2126.04 2142.78C2123.04 2145.52 2110.66 2161.63 2106.3 2162.07C2104.45 2162.27 2102.58 2162.15 2100.76 2161.73C2103.53 2159.56 2106.57 2154.44 2109.35 2148.86C2111.97 2143.91 2113.3 2138.39 2113.24 2132.79L2131.5 2138.91C2131.5 2138.91 2131.82 2139.67 2132.23 2140.91C2130.01 2140.75 2127.8 2141.42 2126.04 2142.78Z" fill="#FFC061"></path> <path d="M2089.53 2167.79C2091.15 2166.27 2094.05 2164.48 2099.19 2162.65C2099.76 2162.43 2100.29 2162.12 2100.76 2161.73C2102.58 2162.15 2104.45 2162.27 2106.3 2162.07C2110.66 2161.63 2122.99 2145.52 2126.04 2142.78C2127.8 2141.4 2130 2140.71 2132.23 2140.86C2133.16 2143.52 2134.56 2148.31 2133.81 2151.33C2132.72 2155.68 2130.1 2168.11 2130.54 2172.01H2125.1V2158.08C2122.79 2159.3 2120.67 2160.84 2118.78 2162.65C2117.83 2163.87 2117.07 2165.22 2116.52 2166.65C2115.84 2168.25 2114.7 2169.61 2113.24 2170.56C2111.79 2171.51 2110.09 2172.01 2108.35 2172H2091.22C2090.74 2172 2090.26 2171.85 2089.86 2171.58C2089.46 2171.31 2089.15 2170.92 2088.97 2170.47C2088.78 2170.02 2088.74 2169.52 2088.84 2169.04C2088.94 2168.57 2089.18 2168.13 2089.53 2167.79Z" fill="white"></path> <path d="M2104.22 1622.22L2108.09 1629.22C2111.15 1634.79 2109.5 1642.01 2103.99 1645.22C2098.91 1648.15 2092.53 1646.93 2089.24 1640.35C2086.32 1634.51 2088.74 1627.68 2089.31 1624.35C2090.64 1616.76 2099.22 1614.47 2104.22 1622.22Z" fill="#FFD361"></path> <path d="M2105.54 1629.14C2105.74 1628.47 2105.87 1627.78 2105.93 1627.07C2106.06 1625.74 2106.56 1623.79 2108.44 1624.95C2111.18 1626.65 2110.1 1633.71 2106.75 1633.95C2104.22 1634.14 2105 1630.87 2105.54 1629.14Z" fill="#FFD361"></path> <path d="M2090.08 1633.45C2089.76 1632.82 2089.5 1632.15 2089.31 1631.45C2088.94 1630.16 2088.08 1628.33 2086.45 1629.83C2084.07 1632 2086.45 1638.74 2089.77 1638.34C2092.22 1638.08 2090.92 1635.01 2090.08 1633.45Z" fill="#FFD361"></path> <path d="M2269.57 2038.88C2271.45 2042.52 2283.88 2058.55 2283.2 2062.88C2282.91 2064.73 2282.32 2066.51 2281.46 2068.16C2280.06 2064.93 2275.89 2060.68 2271.2 2056.57C2267.08 2052.79 2262.08 2050.09 2256.65 2048.72L2267.21 2032.62C2267.21 2032.62 2268.04 2032.51 2269.29 2032.41C2268.58 2034.53 2268.68 2036.84 2269.57 2038.88V2038.88Z" fill="#FFC061"></path> <path d="M2284.46 2080.55C2283.4 2078.55 2282.4 2075.34 2281.95 2069.9C2281.88 2069.3 2281.72 2068.71 2281.46 2068.15C2282.33 2066.5 2282.91 2064.72 2283.2 2062.87C2283.88 2058.55 2271.45 2042.52 2269.57 2038.87C2268.68 2036.82 2268.58 2034.51 2269.29 2032.39C2272.1 2032.17 2277.09 2032.04 2279.81 2033.53C2283.75 2035.7 2295.1 2041.39 2298.98 2041.96L2297.6 2047.22L2284.12 2043.67C2284.72 2046.22 2285.66 2048.67 2286.94 2050.94C2287.88 2052.18 2288.99 2053.26 2290.24 2054.16C2291.61 2055.23 2292.63 2056.68 2293.18 2058.33C2293.73 2059.98 2293.79 2061.75 2293.33 2063.42L2288.97 2079.96C2288.85 2080.44 2288.59 2080.87 2288.23 2081.19C2287.86 2081.51 2287.4 2081.72 2286.92 2081.78C2286.43 2081.85 2285.94 2081.77 2285.5 2081.55C2285.07 2081.33 2284.7 2080.98 2284.46 2080.55V2080.55Z" fill="white"></path> <path d="M2130.34 2068.14C2116.95 2071.64 2086.22 2082.01 2070.5 2083.4C2035.83 2008.53 2033.5 1932.4 2038.75 1874.08C2043.96 1816.41 2052.75 1801.22 2063.98 1775.39C2068.15 1765.81 2075.71 1751.89 2079.63 1740.58C2097.91 1740.72 2118.55 1752.01 2153.45 1740.76C2159.89 1758.47 2192.77 1775.47 2189.53 1835.76C2188.99 1845.84 2176.16 1960.35 2184.01 1963.03C2206.09 1970.59 2226.01 1986.69 2240.9 2001.68C2232.84 2011.12 2216.99 2033.51 2200.15 2045.78C2087.54 1999.98 2109.79 1851.35 2107.58 1851.02C2104.02 1850.48 2097.58 1969.97 2105.9 1984.5C2116.99 2003.95 2125.11 2035.22 2130.34 2068.14Z" fill="#F47F4A"></path> <path d="M2102.49 1643.03C2100.29 1643.9 2097.33 1645.03 2093.87 1643.69C2092.01 1642.96 2089.65 1640.56 2089.14 1640.02C2089.14 1640.13 2089.23 1640.24 2089.28 1640.34C2092.57 1646.92 2098.95 1648.14 2104.03 1645.21C2105.64 1644.27 2107 1642.93 2107.97 1641.34C2108.94 1639.74 2109.51 1637.93 2109.61 1636.06C2108.12 1639.15 2105.61 1641.61 2102.49 1643.03V1643.03Z" fill="#FFD361"></path> <path d="M2070.5 2083.41C2035.83 2008.54 2033.5 1932.41 2038.75 1874.09C2043.96 1816.42 2052.75 1801.23 2063.98 1775.4C2068.15 1765.82 2075.71 1751.9 2079.63 1740.59C2087.98 1740.65 2074.48 1786.02 2072.71 1805.82C2068.71 1850.3 2070.78 1892.38 2071.91 1917.82C2073.04 1943.26 2087.09 2001.9 2099.38 2031.55C2104.88 2045.2 2108.06 2059.67 2108.8 2074.36C2095.36 2078.35 2080.12 2082.56 2070.5 2083.41Z" fill="#F47F4A"></path> <path d="M2107.58 1851.06C2110.74 1839.8 2136.67 1957.06 2152.98 1977.48C2169.29 1997.9 2201.75 1995.31 2221.62 2010.06C2224.29 2012.05 2226.54 2014.55 2228.24 2017.4C2220.24 2027.16 2210.39 2038.4 2200.15 2045.82C2087.54 2000.02 2109.79 1851.39 2107.58 1851.06Z" fill="#F47F4A"></path> <path d="M2092.5 1637.23C2092.5 1637.23 2098.12 1637.69 2100.93 1636.56C2100.93 1636.56 2097.59 1639.16 2095.69 1638.97C2094.46 1638.79 2093.33 1638.17 2092.5 1637.23Z" fill="#FFE6E6"></path> <path d="M1981.38 1987.91C1982.35 1983.71 1981.75 1979.3 1979.69 1975.51C1963.23 1945.34 1891.69 1809.18 1931 1791.33C1975.24 1771.24 2012.78 1795.94 2012.78 1795.94C2012.78 1795.94 2054.48 1952.26 2044.4 2005.49C2037.06 2044.2 2007.16 2156.38 2009.03 2159.1C2010.9 2161.82 1969.22 2166.52 1971.33 2157.36C1971.91 2154.87 1968.52 2085.02 1973.71 2032.74C1975.36 2017.66 1977.92 2002.69 1981.38 1987.91V1987.91Z" fill="#1E1240"></path> <path d="M1891.93 1978.43C1892.32 1925.74 1851.31 1787.81 1895.55 1767.71C1939.79 1747.61 1982.12 1790.71 1982.12 1790.71C1982.12 1790.71 1963.59 1952.25 1953.5 2005.48C1946.17 2044.19 1927.5 2156.37 1929.38 2159.09C1931.26 2161.81 1878.32 2166.51 1880.44 2157.35C1881.01 2154.86 1877.63 2085.01 1882.81 2032.73C1885.33 2007.32 1891.83 1992.2 1891.93 1978.43Z" fill="#1E1240"></path> <path d="M1877.85 1804.08C1866.19 1745.67 1901.21 1615.43 1956.19 1608.5C1991.54 1604.05 2070.3 1658.59 2048.33 1714.67C2042.58 1729.34 2022.87 1737.2 2014.87 1753.56C2009.98 1763.56 2027.98 1802.55 2026.87 1815.08C2024.87 1838.32 1984.79 1840.39 1963.87 1839.96C1913.65 1838.94 1882.53 1827.49 1877.85 1804.08Z" fill="#F47F4A"></path> <path d="M1956.22 1608.5C1963.98 1607.5 1973.84 1609.4 1984.22 1613.5C1977.73 1627.14 1968.45 1648.86 1968 1662.29C1967.31 1683.02 1998.6 1710.36 2020.49 1717.15C2030.36 1720.22 2036.57 1723.39 2040.25 1726.22C2038 1728.51 2035.54 1730.72 2033.01 1732.95C2020.68 1729.66 2002.94 1718.36 1994.8 1713.64C1982.67 1706.64 1956.8 1670.58 1947.21 1674.73C1937.62 1678.88 1927.11 1703.44 1926.48 1709.5C1925.94 1714.55 1993.17 1741.14 2015.57 1752.23C2015.33 1752.67 2015.07 1753.1 2014.85 1753.55C2014.67 1753.94 2014.52 1754.34 2014.42 1754.75C1990.85 1746.31 1921.57 1721.62 1914.26 1728.45C1905.32 1736.79 1910.53 1751.28 1910.26 1759.58C1909.98 1766.65 1991.26 1765.84 2015.86 1770.2C2016.27 1771.9 2016.73 1773.67 2017.22 1775.48C1994.75 1779.32 1911.9 1775.92 1910.22 1780.31C1908.3 1785.42 1907.98 1807.43 1916.92 1812.85C1924.52 1817.47 1998.37 1798.27 2024.72 1801.32C2026.22 1807 2027.17 1811.89 2026.9 1815.08C2024.9 1838.32 1984.82 1840.39 1963.9 1839.96C1913.68 1838.96 1882.56 1827.49 1877.9 1804.08C1866.22 1745.67 1901.22 1615.43 1956.22 1608.5Z" fill="#F47F4A"></path> <path d="M2037.88 1600.86C2037.88 1600.86 2042.55 1589.26 2032.29 1584.05C2017.75 1576.67 2006.22 1591.11 2006.45 1598.12C2006.76 1607.92 2013.3 1607.81 2019.75 1606.94C2026.2 1606.07 2037.88 1600.86 2037.88 1600.86Z" fill="#F47F4A"></path> <path d="M2015.22 1596.86C2015.22 1596.86 2032.42 1587.47 2040.52 1588.7C2051.61 1590.39 2051.3 1600.64 2047.67 1603.99C2044.04 1607.34 2030.67 1610.86 2027.67 1609.82C2024.67 1608.78 2015.22 1596.86 2015.22 1596.86Z" fill="#F47F4A"></path> <path d="M2010.22 1606.24L1990.61 1629.62C1989.1 1633.4 2005.4 1651.86 2013.26 1649.39C2015.56 1648.67 2016.48 1644.85 2016.37 1640.27L2014.9 1615.01L2010.22 1606.24Z" fill="#FFD361"></path> <path d="M2015.16 1620.08C2011.27 1617.72 2005.98 1614.41 2005.98 1614.41C2004.74 1619.14 2005.33 1624.17 2007.63 1628.48C2009.51 1632.03 2012.49 1634.87 2016.11 1636.58L2015.16 1620.08Z" fill="#311E69"></path> <path d="M2035.75 1606.34C2035.75 1606.34 2040.21 1604.88 2038.75 1597.75C2037.29 1590.62 2012.1 1595.75 2008.51 1600.55C2003.16 1607.68 2003.77 1613.87 2003.77 1613.87C2003.77 1613.87 2030.39 1615.08 2035.75 1606.34Z" fill="#726E7D"></path> <path d="M2019.06 1599.47L2007.48 1611.84C2005.8 1613.95 2005.01 1616.63 2005.28 1619.31C2005.54 1621.98 2006.84 1624.46 2008.89 1626.19C2012.32 1629.07 2014.89 1630.26 2020.14 1631.98C2024.55 1633.42 2028.55 1630.41 2031.14 1624.98C2033.74 1619.09 2035.31 1612.8 2035.79 1606.38C2036.48 1597.14 2027.22 1591.95 2019.06 1599.47Z" fill="#FFD361"></path> <path d="M2007.48 1611.84L2019.06 1599.47C2019.97 1598.62 2020.98 1597.88 2022.06 1597.27C2020.48 1600.1 2017.52 1606.4 2017.82 1607.83C2018.59 1611.52 2019.6 1608.93 2024.57 1611.06C2027.73 1612.42 2031.36 1615.86 2033.57 1618.18C2032.92 1620.5 2032.09 1622.76 2031.08 1624.94C2028.53 1630.41 2024.53 1633.42 2020.08 1631.94C2014.79 1630.22 2012.26 1629.03 2008.83 1626.15C2006.8 1624.41 2005.52 1621.94 2005.27 1619.27C2005.02 1616.6 2005.81 1613.94 2007.48 1611.84Z" fill="#726E7D"></path> <path d="M2022.85 1614.14C2025.35 1615.97 2028.12 1617.36 2031.07 1618.27C2031.07 1618.27 2029.72 1621.51 2027.28 1621.72C2024.84 1621.93 2022.22 1618.5 2022.85 1614.14Z" fill="white"></path> <path d="M2023.96 1627.14C2019.73 1624.04 2012.89 1629.46 2007.71 1618.89C2006.71 1616.89 2007.32 1613.54 2007.71 1611.56L2007.45 1611.83C2005.77 1613.94 2004.98 1616.62 2005.25 1619.3C2005.51 1621.97 2006.81 1624.45 2008.86 1626.18C2012.29 1629.06 2014.86 1630.25 2020.11 1631.97C2021.4 1632.38 2022.77 1632.42 2024.07 1632.09C2025.38 1631.75 2026.56 1631.06 2027.49 1630.08C2026.62 1629.84 2025.22 1628.14 2023.96 1627.14Z" fill="#1E1240"></path> <path d="M2016.71 1605.55C2016.94 1604.52 2017.27 1603.52 2017.71 1602.55C2018.55 1600.74 2019.38 1597.86 2016.08 1597.93C2011.29 1598.04 2007.14 1606.81 2011.28 1609.62C2014.39 1611.76 2016.12 1608.14 2016.71 1605.55Z" fill="#FFD361"></path> <path d="M2005.35 1634.93L2000.35 1617.93L2003.78 1613.83C2003.78 1613.83 1990.53 1603.83 1979.53 1613.83C1968.53 1623.83 1992.21 1650.2 1998.67 1654.75C2005.13 1659.3 2016.75 1655.41 2020.51 1649.58C2024.27 1643.75 2022.81 1637.86 2015.85 1632.01L2005.35 1634.93Z" fill="#F47F4A"></path> <path d="M2138.76 1665.93C2129.95 1645.05 2049.76 1680.03 2032.56 1675.01C2008.36 1668.01 1976.07 1602.07 1962.5 1606.24C1948.93 1610.41 1989.26 1696.77 2022.76 1705.41C2062.22 1715.58 2150.45 1693.62 2138.76 1665.93Z" fill="#FFD361"></path> <path d="M1959.92 1610.22C1963.91 1616.37 1967.53 1622.74 1970.77 1629.31C1975.86 1640.12 1978.71 1652.49 1990.47 1668.16C2002.23 1683.83 2010.26 1689.73 2025.93 1696.04C2041.6 1702.35 2068.68 1698.49 2095.75 1688.97C2111.21 1683.54 2125.64 1675.53 2138.43 1665.27C2138.54 1665.48 2138.66 1665.7 2138.76 1665.93C2150.45 1693.62 2062.25 1715.58 2022.76 1705.41C1992.84 1697.7 1957.49 1628.03 1959.92 1610.22Z" fill="#FFD361"></path> <path d="M1970.06 1609.4C1970.06 1609.4 1967.83 1603.11 1959.53 1604.14C1951.23 1605.17 1951.13 1609.06 1952.76 1609.4C1954.39 1609.74 1960.29 1610.86 1960.29 1610.86C1960.29 1610.86 1971.28 1610.9 1970.06 1609.4Z" fill="#FFD361"></path> <path d="M1942.07 1621.76C1966.7 1612.1 2016.25 1707.44 2031.07 1713.76C2045.89 1720.08 2132.18 1663.89 2143.58 1672.44C2154.98 1680.99 2139.19 1744.67 2045.97 1757.12C1952.75 1769.57 1900.14 1638.2 1942.07 1621.76Z" fill="#F47F4A"></path> <path d="M2130.64 1681.14C2129.36 1676.66 2127.96 1669.2 2131.56 1665.93C2131.78 1665.8 2132.02 1665.72 2132.27 1665.7C2132.52 1665.68 2132.78 1665.72 2133.01 1665.82C2133.24 1665.92 2133.45 1666.07 2133.61 1666.26C2133.77 1666.46 2133.89 1666.69 2133.94 1666.93L2134.85 1671.28C2134.85 1671.28 2137.11 1670.18 2139.96 1661.28C2140.4 1659.9 2147.96 1666.48 2148.76 1669.07C2151.86 1679.07 2145.99 1684.63 2140.93 1686.56C2138.29 1687.58 2131.58 1684.47 2130.64 1681.14Z" fill="#FFD361"></path> <path d="M1999.59 1737.97C2032.24 1752.63 2081.77 1739.6 2101.17 1728.61C2114.58 1721.02 2134.42 1702.15 2145.4 1691.21C2139.29 1713.64 2112.14 1748.27 2045.97 1757.11C1989.14 1764.7 1947.4 1718.84 1932.97 1678.11C1944.95 1692.83 1974.3 1726.63 1999.59 1737.97Z" fill="#311E69"></path> <path d="M1326.3 1132.67C1326.3 1132.67 1330.22 1123.94 1331.03 1120.67C1331.84 1117.4 1332.56 1109.41 1335.55 1114.84C1338.54 1120.27 1334.44 1125.22 1339.04 1125.84C1343.64 1126.46 1348.52 1121.61 1357.7 1117.1C1361.93 1115.02 1365.53 1125.1 1357.38 1132.62C1347.68 1141.55 1338.04 1145.88 1332.19 1144.99C1319.56 1143.04 1326.3 1132.67 1326.3 1132.67Z" fill="#6E1A00"></path> <path d="M1352.21 1142.67C1352.21 1142.67 1356.13 1133.94 1356.94 1130.67C1357.75 1127.4 1358.47 1119.41 1361.46 1124.84C1364.45 1130.27 1360.35 1135.22 1364.95 1135.84C1369.55 1136.46 1374.43 1131.61 1383.61 1127.1C1387.84 1125.02 1391.44 1135.1 1383.29 1142.62C1373.59 1151.55 1363.95 1155.88 1358.1 1154.99C1345.47 1153.04 1352.21 1142.67 1352.21 1142.67Z" fill="#6E1A00"></path> <path d="M1279.81 1678.67C1279.81 1678.67 1282.54 1699.47 1285.3 1704.35C1284.45 1705.38 1283.38 1706.2 1282.17 1706.76C1280.96 1707.33 1279.64 1707.62 1278.3 1707.61C1271.95 1707.67 1265.61 1707.1 1259.36 1705.92C1261.08 1698.66 1258.49 1684.06 1255.96 1678.67H1279.81Z" fill="white"></path> <path d="M1280.18 1720.01C1292.67 1720.53 1306.68 1719.09 1313.63 1718.22C1313.84 1719.04 1313.97 1719.88 1314.01 1720.73C1314.23 1725.23 1268.61 1727.29 1260.72 1723.34C1258.6 1722.28 1257.54 1719.94 1257.31 1717.08C1264.84 1718.67 1272.49 1719.65 1280.18 1720.01V1720.01Z" fill="white"></path> <path d="M1280.18 1720.01C1272.49 1719.65 1264.84 1718.67 1257.31 1717.08C1257.16 1714.05 1257.65 1711.02 1258.75 1708.18C1259 1707.45 1259.22 1706.7 1259.4 1705.94C1265.64 1707.12 1271.98 1707.69 1278.34 1707.63C1279.67 1707.64 1280.99 1707.35 1282.2 1706.78C1283.41 1706.22 1284.48 1705.4 1285.34 1704.37C1285.41 1704.48 1285.47 1704.59 1285.54 1704.69C1286.86 1706.59 1290.54 1707.87 1295.54 1709.69C1302.85 1713 1311.66 1710.69 1313.59 1718.2C1306.65 1719.09 1292.64 1720.53 1280.18 1720.01Z" fill="#1E1240"></path> <path d="M1101.86 1699.88C1104.13 1700.75 1105.06 1705.88 1104.78 1708.28C1104.45 1711.19 1103.42 1715.06 1100.42 1716.84C1095.29 1719.84 1069.84 1725.33 1062.12 1725.33C1053.47 1725.33 1052.83 1723.9 1052.03 1720.67C1051.49 1718.5 1060.1 1712.67 1068.61 1707.67C1072.74 1705.24 1079.11 1701.32 1082.39 1700.55C1088.28 1699.11 1095.27 1697.38 1101.86 1699.88Z" fill="#1E1240"></path> <path d="M1067.45 1721.67C1075.98 1720.37 1096.62 1714.17 1103.98 1711.92C1103.43 1713.93 1102.16 1715.67 1100.41 1716.81C1095.28 1719.81 1069.83 1725.3 1062.11 1725.3C1053.74 1725.3 1052.87 1723.96 1052.11 1720.95C1057.12 1722.24 1062.35 1722.48 1067.45 1721.67V1721.67Z" fill="white"></path> <path d="M1101.29 1704.19C1101.29 1704.19 1106.29 1687.6 1104.9 1687.19C1103.51 1686.78 1083.34 1685.03 1082.46 1688.32C1081.58 1691.61 1080.94 1702.81 1079.98 1704.58C1079.02 1706.35 1075.16 1708.18 1078.04 1708.82C1080.92 1709.46 1099.12 1707.67 1101.29 1704.19Z" fill="white"></path> <path d="M1239.87 1368.46C1239.87 1368.46 1306.78 1677.83 1296.19 1690.14C1282.52 1706.04 1257.19 1703.76 1249.75 1696.42C1245.63 1692.42 1233.64 1580.72 1219.55 1540.89C1206.72 1504.61 1166.6 1435.39 1175.44 1383.32C1177.12 1373.4 1239.87 1368.46 1239.87 1368.46Z" fill="#FAA755"></path> <path d="M1249.75 1696.42C1245.63 1692.42 1233.64 1580.72 1219.55 1540.89C1210.89 1516.4 1189.8 1476.89 1179.72 1437.79C1195.06 1445.87 1213.72 1458.11 1216.72 1471.12C1221.98 1493.78 1230.19 1556.86 1240.05 1567.04C1249.91 1577.22 1261.05 1575.25 1265.34 1609.09C1267.96 1629.86 1283.18 1642.95 1294.93 1655.89C1297.44 1675.09 1298.18 1687.83 1296.2 1690.14C1282.52 1706.04 1257.24 1703.76 1249.75 1696.42Z" fill="#FAA755"></path> <path d="M1203.67 1218.36C1217.15 1212.7 1267.89 1252.94 1286.06 1241.36C1304.23 1229.78 1337.86 1127.79 1356.6 1145.06C1375.34 1162.33 1345.04 1276.06 1313.52 1291.37C1282 1306.68 1231.14 1299.47 1212.6 1276.93C1202.95 1265.22 1190.93 1223.67 1203.67 1218.36Z" fill="#6E1A00"></path> <path d="M1253.94 1297.67C1240.1 1295.13 1227.41 1290.05 1218.5 1282.77L1269.38 1242.36C1276.08 1243.95 1281.92 1244.01 1286.06 1241.36C1291.23 1238.07 1297.65 1227.46 1304.62 1214.36L1331.62 1192.89C1331.62 1192.89 1307.18 1275.42 1253.94 1297.67Z" fill="#FFFBFB"></path> <path d="M1129.04 1370.75C1123 1379.62 1118.85 1389.63 1116.85 1400.16C1101.51 1477.48 1067.85 1682.98 1073.85 1691.38C1081.24 1701.73 1108.51 1698.94 1112.94 1693.52C1117.37 1688.1 1194.64 1416.42 1198.84 1402.13C1203.04 1387.84 1208.93 1373.38 1193.13 1370.75C1177.33 1368.12 1129.04 1370.75 1129.04 1370.75Z" fill="#FAA755"></path> <path d="M1129.03 1370.75C1129.03 1370.75 1131.03 1370.64 1134.41 1370.49C1134.49 1371.2 1134.56 1371.92 1134.63 1372.65C1138.52 1415.27 1138.24 1467.17 1122.63 1490.5C1107.02 1513.83 1096.49 1514.5 1100.43 1563.76C1104.37 1613.02 1116.22 1631.1 1097.81 1661.32C1089.45 1675.05 1084.89 1687.16 1081.01 1696.32C1078.17 1695.41 1075.67 1693.67 1073.82 1691.32C1067.82 1682.92 1101.52 1477.42 1116.82 1400.1C1118.84 1389.59 1123 1379.6 1129.03 1370.75V1370.75Z" fill="#FAA755"></path> <path d="M1111.17 1238.1C1131.3 1212.78 1178.38 1208.58 1210.83 1217.04C1221.76 1219.89 1229.45 1226.32 1232.37 1237.41C1237.83 1258.19 1241.95 1313.02 1243.19 1386.64C1243.29 1392.88 1237.62 1399.64 1201.67 1404.18C1196.53 1404.83 1179.21 1406.24 1176.38 1406.18C1154.29 1405.85 1114.48 1417.99 1111.17 1410.9C1107.24 1402.47 1106.7 1351.9 1105.89 1319.9C1104.88 1278.13 1099.89 1252.36 1111.17 1238.1Z" fill="#FFFBFB"></path> <path d="M1184.8 1189.42C1186.15 1185.22 1185.82 1180.65 1183.87 1176.69C1181.7 1172.57 1177.15 1169.75 1175.71 1169.75C1168.35 1169.75 1174.2 1175.06 1164.94 1179.58C1158.59 1182.68 1155.3 1189.86 1157.28 1196.06C1160.53 1206.24 1165.28 1208.18 1168.19 1207.06C1171.1 1205.94 1184.8 1189.42 1184.8 1189.42Z" fill="#140500"></path> <path d="M1165.93 1197.07L1161.3 1219.95C1161.67 1223.14 1174.72 1228.2 1179.3 1223.54C1180.62 1222.18 1177.77 1202.7 1177.77 1202.7L1165.93 1197.07Z" fill="#6E1A00"></path> <path d="M1179.28 1215.61C1179.11 1213.71 1178.89 1211.69 1178.66 1209.82L1169.15 1208.94C1169.15 1208.94 1171.73 1213.56 1179.28 1215.61Z" fill="#6E1A00"></path> <path d="M1169.78 1188.31L1166.38 1201.25C1166 1203.34 1166.46 1205.5 1167.64 1207.26C1168.83 1209.02 1170.66 1210.25 1172.74 1210.69C1176.2 1211.41 1178.41 1211.28 1182.74 1210.49C1186.34 1209.84 1187.99 1206.25 1187.74 1201.49C1187.34 1196.43 1186.07 1191.47 1183.99 1186.83C1181.02 1180.17 1172.61 1180.04 1169.78 1188.31Z" fill="#6E1A00"></path> <path d="M1178.59 1197.05C1181.01 1197.38 1183.46 1197.31 1185.84 1196.84C1185.84 1196.84 1186.12 1199.59 1184.5 1200.65C1182.88 1201.71 1179.79 1200.29 1178.59 1197.05Z" fill="white"></path> <path d="M1169.18 1194.24C1168.8 1193.5 1168.51 1192.72 1168.3 1191.92C1167.88 1190.41 1166.91 1188.25 1164.96 1189.98C1162.13 1192.5 1164.82 1200.47 1168.74 1200.04C1171.7 1199.73 1170.18 1196.09 1169.18 1194.24Z" fill="#6E1A00"></path> <path d="M1174.18 1208.47C1177.52 1209.06 1180.96 1208.34 1183.79 1206.47C1184.84 1205.8 1186.12 1205.58 1187.34 1205.85C1186.67 1208.34 1185.15 1210.08 1182.77 1210.51C1178.45 1211.3 1176.24 1211.43 1172.77 1210.71C1171.33 1210.41 1170 1209.72 1168.92 1208.71C1167.84 1207.71 1167.06 1206.44 1166.65 1205.02C1168.76 1206.89 1171.38 1208.09 1174.18 1208.47V1208.47Z" fill="#6E1A00"></path> <path d="M1112.54 1265.96C1107.03 1250.9 1119.71 1235.38 1135.61 1237.44C1164.55 1241.18 1209.79 1245.37 1228.45 1238.08C1256.91 1226.95 1306.89 1125.08 1334.96 1136.23C1363.03 1147.38 1315.35 1237.23 1275.68 1269.15C1241.68 1296.5 1184.02 1299.32 1154.82 1293.06C1134.63 1288.74 1119.02 1283.67 1112.54 1265.96Z" fill="#6E1A00"></path> <path d="M1166.25 1276.67C1201.39 1281.29 1234.03 1281.87 1258.02 1268.29C1282.01 1254.71 1305.42 1224.64 1319.3 1189.37C1332.48 1155.85 1330.93 1150.18 1340.63 1140.91C1354.72 1162.67 1311.87 1240.1 1275.68 1269.18C1241.68 1296.53 1184.01 1299.35 1154.81 1293.09C1134.62 1288.77 1119.02 1283.72 1112.54 1265.99C1111.62 1263.51 1111.18 1260.88 1111.25 1258.23C1115.58 1262.47 1120.19 1266.41 1125.05 1270.02C1134.87 1276.93 1131.12 1272.01 1166.25 1276.67Z" fill="#6E1A00"></path> <path d="M2451.72 1447C2451.72 1447 2450.47 1436.3 2450.72 1432.54C2450.97 1428.78 2452.9 1419.93 2447.85 1424.75C2442.8 1429.57 2445.52 1436.26 2440.4 1435.31C2435.28 1434.36 2431.65 1427.56 2423.33 1419.61C2419.49 1415.94 2412.21 1425.61 2418.41 1436.38C2425.8 1449.25 2434.68 1457.17 2441.26 1458.19C2455.44 1460.42 2451.72 1447 2451.72 1447Z" fill="#6E1A00"></path> <path d="M2625.28 1465.31C2609.85 1465.02 2589.54 1506.53 2569.17 1506.19C2548.8 1505.85 2475.72 1446.74 2447.8 1466.27C2435.07 1475.19 2483.72 1557.73 2572.95 1543.2C2662.18 1528.67 2646.98 1465.7 2625.28 1465.31Z" fill="#6E1A00"></path> <path d="M2676.74 1972.47C2673.44 1975.47 2660.05 1992.92 2655.33 1993.39C2653.32 1993.6 2651.3 1993.48 2649.33 1993.03C2652.33 1990.67 2655.64 1985.12 2658.66 1979.03C2660.66 1974.95 2659.34 1967.8 2657.05 1959.03H2681.22C2681.22 1959.03 2683.01 1969.03 2683.46 1970.31C2681.03 1970.17 2678.63 1970.94 2676.74 1972.47V1972.47Z" fill="#6E1A00"></path> <path d="M2637.13 1999.6C2638.89 1997.95 2642.03 1996 2647.62 1994.02C2648.24 1993.78 2648.81 1993.44 2649.31 1993.02C2651.28 1993.47 2653.3 1993.59 2655.31 1993.38C2660.03 1992.91 2673.42 1975.44 2676.72 1972.46C2678.62 1970.96 2681.02 1970.21 2683.44 1970.37C2684.44 1973.27 2685.96 1978.46 2685.14 1981.73C2683.96 1986.46 2681.14 1999.94 2681.6 2004.17H2675.7V1989.05C2673.2 1990.39 2670.89 1992.07 2668.85 1994.05C2667.81 1995.37 2666.98 1996.84 2666.39 1998.41C2665.65 2000.14 2664.41 2001.61 2662.83 2002.64C2661.26 2003.68 2659.41 2004.22 2657.53 2004.21H2638.97C2638.44 2004.21 2637.91 2004.05 2637.47 2003.75C2637.03 2003.45 2636.68 2003.03 2636.49 2002.53C2636.29 2002.03 2636.24 2001.49 2636.36 2000.97C2636.47 2000.44 2636.74 1999.97 2637.13 1999.6V1999.6Z" fill="#311E69"></path> <path d="M2823.71 1851.51C2824.71 1855.85 2833.3 1876.1 2831.39 1880.44C2830.58 1882.29 2829.47 1884 2828.11 1885.5C2827.54 1881.72 2824.33 1876.12 2820.54 1870.5C2817.99 1866.73 2811.11 1864.39 2802.37 1862.08L2814.2 1839.32C2814.2 1839.32 2823.85 1844.38 2825.2 1844.62C2823.86 1846.65 2823.33 1849.11 2823.71 1851.51V1851.51Z" fill="#6E1A00"></path> <path d="M2827.84 1899.34C2827.27 1897 2827.12 1893.34 2828.14 1887.47C2828.25 1886.81 2828.25 1886.13 2828.14 1885.47C2829.5 1883.97 2830.61 1882.26 2831.42 1880.41C2833.33 1876.07 2824.7 1855.82 2823.74 1851.48C2823.36 1849.08 2823.89 1846.63 2825.22 1844.6C2828.22 1845.15 2833.51 1846.38 2835.95 1848.71C2839.48 1852.06 2849.83 1861.16 2853.74 1862.83L2850.84 1867.97L2837.68 1860.53C2837.62 1863.36 2837.96 1866.19 2838.68 1868.93C2839.32 1870.48 2840.19 1871.92 2841.26 1873.21C2842.4 1874.71 2843.07 1876.51 2843.2 1878.39C2843.32 1880.27 2842.89 1882.15 2841.95 1883.78L2832.82 1899.94C2832.58 1900.43 2832.19 1900.84 2831.7 1901.1C2831.22 1901.36 2830.67 1901.47 2830.12 1901.4C2829.57 1901.34 2829.06 1901.1 2828.65 1900.73C2828.25 1900.36 2827.96 1899.88 2827.84 1899.34V1899.34Z" fill="#311E69"></path> <path d="M2622.94 1438.94C2622.94 1487.47 2603.66 1534.02 2569.34 1568.34C2535.02 1602.66 2488.48 1621.94 2439.94 1621.94C2338.94 1621.94 2257 1540.03 2257 1438.94C2257 1414.92 2261.73 1391.13 2270.92 1368.93C2280.12 1346.73 2293.59 1326.57 2310.58 1309.58C2327.57 1292.59 2347.74 1279.12 2369.93 1269.92C2392.13 1260.73 2415.92 1256 2439.94 1256C2541.03 1256 2622.94 1337.9 2622.94 1438.94ZM2301.08 1497.61C2306.55 1510.53 2313.8 1522.63 2322.62 1533.54L2423.89 1432.27V1289.05C2400.52 1291.58 2378.05 1299.54 2358.3 1312.29C2338.55 1325.04 2322.05 1342.23 2310.12 1362.49C2298.18 1382.75 2291.15 1405.52 2289.59 1428.98C2288.02 1452.44 2291.95 1475.94 2301.08 1497.61V1497.61ZM2381.33 1577.85C2394.9 1583.6 2409.24 1587.31 2423.89 1588.85V1477.85L2345.39 1556.34C2356.31 1565.15 2368.41 1572.39 2381.33 1577.85V1577.85ZM2498.66 1577.85C2511.59 1572.39 2523.68 1565.13 2534.59 1556.31L2456.09 1477.82V1588.82C2470.73 1587.28 2485.07 1583.58 2498.63 1577.85H2498.66ZM2578.9 1497.61C2588.07 1475.94 2592.04 1452.43 2590.49 1428.96C2588.95 1405.48 2581.92 1382.7 2569.98 1362.42C2558.05 1342.15 2541.53 1324.95 2521.75 1312.21C2501.97 1299.47 2479.49 1291.54 2456.09 1289.05V1432.27L2557.36 1533.54C2566.19 1522.63 2573.44 1510.54 2578.9 1497.61V1497.61Z" fill="#FFDD7D"></path> <path d="M2730.07 1775.82C2721.79 1773.28 2731.68 1653.31 2731.56 1642.82C2731.16 1608.44 2700.99 1576.44 2698.83 1570.29C2696.15 1562.65 2607.53 1558.29 2603.7 1572.87C2599.77 1587.87 2577.26 1649.63 2573.29 1688.36C2561.88 1799.59 2573.14 1901.36 2620.03 1970.42C2622.32 1973.79 2683.31 1964.3 2683.46 1961.67C2685.75 1921.14 2665.95 1838.5 2643.03 1801.22C2633.88 1786.34 2642.83 1671.09 2646.14 1672.88C2657.66 1679.08 2616.36 1875.64 2802.37 1885.54L2817.01 1840.82C2817.01 1840.82 2779.86 1791.08 2730.07 1775.82Z" fill="#FAA755"></path> <path d="M2719.58 1602.5C2710.75 1586.12 2705.73 1566.83 2704.71 1563.19C2693 1521.19 2718.18 1507.8 2699.37 1475.51C2688.04 1456.07 2668.52 1449.33 2636.94 1455.71C2631.44 1456.82 2617.94 1464.23 2610.73 1484.56C2601.3 1511.2 2623.04 1503.47 2614.58 1532.91C2611.27 1544.41 2607.53 1558.24 2603.7 1572.83C2602.49 1577.45 2598.88 1586.48 2594.48 1597.89C2613.28 1602.05 2668.78 1612.36 2719.58 1602.5Z" fill="#FAA755"></path> <path d="M2637.4 1569.83C2626.01 1577.62 2611.2 1581.24 2600.25 1582.92C2598.65 1587.16 2596.67 1592.23 2594.48 1597.92C2600.71 1599.3 2610.98 1601.35 2623.77 1603.13C2638.01 1599.75 2651.07 1592.58 2661.55 1582.38C2694.43 1550.85 2697.32 1512.61 2697.32 1512.61C2697.32 1512.61 2657.97 1555.7 2637.4 1569.83Z" fill="#FAA755"></path> <path d="M2669.45 1408.29C2658.71 1402.48 2653.18 1406.03 2649.72 1409.75C2646.63 1413.06 2645.08 1415.48 2643.8 1426.84C2643.26 1431.67 2646.64 1436.21 2650.71 1439.84C2658.37 1446.66 2671.31 1443.3 2674.65 1433.6C2678.35 1422.83 2674.88 1411.23 2669.45 1408.29Z" fill="#150F28"></path> <path d="M2573.29 1688.32C2577.29 1649.59 2599.77 1587.82 2603.7 1572.83C2604.7 1569.17 2610.97 1566.7 2619.93 1565.18C2619.8 1574.39 2619.81 1588.74 2620.22 1610.89C2621.22 1664.23 2610.08 1757.46 2615.31 1808.49C2619.42 1848.49 2639.19 1933.89 2647.55 1968.96C2633.77 1970.83 2621.05 1971.89 2620.03 1970.38C2573.14 1901.33 2561.88 1799.55 2573.29 1688.32Z" fill="#FAA755"></path> <path d="M2664.57 1434.91L2664.34 1456.26C2664.29 1459.77 2655.43 1468.6 2649.99 1464.03C2648.4 1462.69 2650.64 1457.91 2652.25 1454.29L2656.85 1436.06L2664.57 1434.91Z" fill="#6E1A00"></path> <path d="M2603.7 1572.83C2607.53 1558.24 2611.27 1544.41 2614.58 1532.91C2623.04 1503.47 2601.3 1511.2 2610.73 1484.56C2617.93 1464.23 2631.44 1456.82 2636.94 1455.71L2638.07 1455.49C2636.97 1461.43 2636.36 1467.45 2636.25 1473.49C2635.42 1496.49 2643.25 1576.49 2640.52 1605.03C2625.06 1603.57 2609.7 1601.18 2594.52 1597.87C2598.88 1586.48 2602.49 1577.44 2603.7 1572.83Z" fill="#FAA755"></path> <path d="M2654.12 1446.89C2656.3 1446.44 2658.31 1445.42 2659.94 1443.92C2661.58 1442.42 2662.78 1440.51 2663.41 1438.39L2656.2 1438.66L2654.12 1446.89Z" fill="#311E69"></path> <path d="M2664.52 1422.08L2665.63 1430.3C2666.5 1436.82 2662.2 1443.16 2655.7 1444.16C2649.7 1445.09 2644.01 1441.52 2643.3 1433.94C2642.67 1427.22 2647.56 1421.53 2649.36 1418.54C2653.43 1411.7 2662.57 1412.7 2664.52 1422.08Z" fill="#6E1A00"></path> <path d="M2664.11 1429.94C2664.38 1429.26 2664.58 1428.56 2664.7 1427.85C2664.95 1426.49 2665.65 1424.52 2667.48 1425.85C2670.15 1427.85 2668.4 1435.03 2664.93 1434.95C2662.35 1434.94 2663.4 1431.64 2664.11 1429.94Z" fill="#6E1A00"></path> <path d="M2646.95 1427.03C2646.87 1426.31 2646.87 1425.57 2646.95 1424.85C2647.08 1423.47 2646.95 1421.39 2644.8 1422.21C2641.69 1423.41 2641.43 1430.8 2644.8 1431.67C2647.28 1432.31 2647.17 1428.85 2646.95 1427.03Z" fill="#6E1A00"></path> <path d="M2656.33 1433.42C2653.67 1433.45 2651.01 1433.04 2648.48 1432.2C2648.48 1432.2 2649 1435.68 2650.61 1437.05C2652.22 1438.42 2654.58 1436.77 2656.33 1433.42Z" fill="white"></path> <path d="M2655.02 1441.48C2652.56 1441.48 2648.22 1440.48 2646.45 1438.89C2644.89 1437.53 2643.55 1434.29 2643.26 1433.58C2643.26 1433.7 2643.26 1433.82 2643.26 1433.94C2643.97 1441.52 2649.66 1445.09 2655.66 1444.16C2657.57 1443.85 2659.38 1443.08 2660.91 1441.9C2662.45 1440.73 2663.67 1439.19 2664.47 1437.43C2661.89 1439.84 2658.55 1441.27 2655.02 1441.48V1441.48Z" fill="#6E1A00"></path> <path d="M2688.02 1472.53C2724.78 1495.43 2669.02 1593.98 2599.02 1595.28C2545.83 1596.28 2482.54 1547.5 2511.52 1529.04C2519.83 1523.74 2596.02 1551.61 2610.94 1548.69C2638.09 1543.39 2668.84 1460.58 2688.02 1472.53Z" fill="#6E1A00"></path> <path d="M2676.31 1502.82C2671.62 1518.22 2674.31 1519.53 2664.39 1527.14C2654.47 1534.75 2658.39 1534.75 2646.72 1551.14C2635.05 1567.53 2606.9 1587.14 2576.72 1580.44C2546.54 1573.74 2522.45 1539.44 2511.91 1535.93C2510.83 1535.54 2509.68 1535.36 2508.53 1535.42C2507.38 1535.47 2506.25 1535.75 2505.21 1536.24C2496.68 1557.77 2551.82 1596.12 2599.06 1595.24C2659.49 1594.12 2709.29 1520.51 2698.12 1485.68C2696.34 1480.2 2678.47 1495.7 2676.31 1502.82Z" fill="#6E1A00"></path> <path d="M2662.69 1405C2662.69 1405 2663.61 1397 2673.69 1396.94C2684.76 1396.85 2685.99 1427.3 2671.11 1420.31C2656.23 1413.32 2662.69 1405 2662.69 1405Z" fill="#150F28"></path> <path d="M2802.37 1885.5C2616.37 1875.6 2657.66 1679.04 2646.14 1672.84C2646.14 1672.84 2657.84 1666.52 2665.69 1699.23C2673.54 1731.94 2684.99 1804.23 2718.36 1828.77C2744.72 1848.16 2791.01 1860.19 2809.28 1864.39L2802.37 1885.5Z" fill="#FAA755"></path> <defs> <linearGradient id="paint0_linear" x1="3.99874e+06" y1="-547874" x2="3.94986e+06" y2="-576299" gradientUnits="userSpaceOnUse"> <stop stop-color="#F7931E"></stop> <stop offset="0.05" stop-color="#E1861B"></stop> <stop offset="0.2" stop-color="#A66314"></stop> <stop offset="0.35" stop-color="#74450E"></stop> <stop offset="0.49" stop-color="#4A2C09"></stop> <stop offset="0.63" stop-color="#2A1905"></stop> <stop offset="0.76" stop-color="#130B02"></stop> <stop offset="0.89" stop-color="#050301"></stop> <stop offset="1"></stop> </linearGradient> <linearGradient id="paint1_linear" x1="1564.99" y1="1523.16" x2="1567.17" y2="1479.16" gradientUnits="userSpaceOnUse"> <stop stop-color="#FFBBB8"></stop> <stop offset="1" stop-color="white"></stop> </linearGradient> </defs> </svg> 